<svg id="_Layer_" data-name="&lt;Layer&gt;" xmlns="http://www.w3.org/2000/svg" viewBox="0 0 3024 1680"><defs><style>.cls-1{fill:#daedeb;}.cls-2{fill:#607dbf;}.cls-3{fill:#93d2db;}.cls-4{fill:#7aa6d7;}.cls-5{fill:#f5ae9e;}.cls-6{fill:#789ed3;}.cls-7{fill:#4355a0;}.cls-8{fill:#f8a404;}.cls-9{fill:#ee7e94;}.cls-10{fill:#f87504;}.cls-11{fill:#5961aa;}.cls-12{fill:#a6d7d4;}.cls-13{fill:#4e82b7;}.cls-14{fill:#362966;}.cls-15{fill:#38286c;}</style></defs><rect class="cls-1" width="3024" height="1680"/><path class="cls-2" d="M1751.64,1051.8s-45.09,7.2-50.05,8.37c-15.32,3.62-41.87,8.62-41.87,8.62,1,9.46,1,23,1,23h89.92C1751.11,1079.65,1752.21,1052.57,1751.64,1051.8Z" transform="translate(798.33 79.92)"/><path class="cls-3" d="M1245.75,704.58l-40.68.08c-6.27,12.76-16.94,23.42-28.91,31.33,5.29-21,8.78-17.71,14.89-32.8,6.27-15.63-16.53-21-22.68-4.39,0,0-13.25-25.63-40.52-24-11.93.7-27.72,6.27-38.34.74-4.1-2.13-10.17-5.09-12.27-9.19-7-13.41,8.82-28.75,20.76-32.89,2.25-.78,11.6-14.92,37.36-19.31,11-1.89,22.14-1.89,32.43,1,1.36-6.15,6-14.1,10.83-17.3a28,28,0,0,1,18.37-4.35c7.3.7,14.77,4.47,17.63,11.07,1.65,3.82,1.65,8.16,3.16,12.06,2.46,6.27,8.49,10.37,13.82,14.6s10.63,9.84,10.46,16.56c-.16,7.67-7.46,14.81-5,22.07,1.27,3.81,4.92,6.31,7.26,9.59C1249.36,686.58,1247.68,696.18,1245.75,704.58Z" transform="translate(798.33 79.92)"/><path class="cls-2" d="M1978.7,827.77,1966.61,907a64.67,64.67,0,0,0-12.59-1.23h-28.87l11.77-77.14a43,43,0,0,0-9.93-34.52,42.19,42.19,0,0,0-10.5-8.86h25.72a36.86,36.86,0,0,1,36.49,42.48Z" transform="translate(798.33 79.92)"/><path class="cls-2" d="M916.82,915.57a26.31,26.31,0,0,0,4.51.37,24.59,24.59,0,0,0,12-3.11l60.12-3-.08.37-12.71,83.41-33.3,7.88s0-31.09,0-31.54A67.26,67.26,0,0,0,916.82,915.57Z" transform="translate(798.33 79.92)"/><path class="cls-4" d="M939.78,1306.1a4.06,4.06,0,0,0,1.4-.2v2h-83v-54.46c6.76,1.27,13.53,2.54,20.34,3.73,3.85.69,9.31,2.21,11.07-2.71,1.68-4.68,4.67-15.5,5.12-17.35,1.11-4.22,1.65-9.92,2.18-15.41.37-3.65.7-7.1,1.15-9.85l43.1-111.34v170.64c-.58.45-1.15.9-1.68,1.35-3.53,3-8.37,7.06-9.07,12.88a20.85,20.85,0,0,0,1.15,8.2l2.46,8.21A6.06,6.06,0,0,0,939.78,1306.1Z" transform="translate(798.33 79.92)"/><path class="cls-4" d="M855.14,1031.46a64,64,0,1,1,87.6-61c0,.54,0,91.45,0,91.45a18.33,18.33,0,0,1,5.78-5.61c-.12,4.63-.49,9.18-1.23,11.4,0,0-54.13,139.67-54.13,139.71l-38.06-10.29Z" transform="translate(798.33 79.92)"/><polygon class="cls-4" points="1745.66 1164.53 1750.74 1151.41 1763.66 1149.85 1773.99 1230.92 1745.66 1230.92 1745.66 1164.53"/><path class="cls-4" d="M976.45,1157.16l9.43,73.73v0a69.44,69.44,0,0,1-14,17.39,19.21,19.21,0,0,1-1.68,1.47c-6.73,6-22.43,16.78-22.84,17V1157.16Z" transform="translate(798.33 79.92)"/><path class="cls-4" d="M1034.27,981l-47.2,11.2,12.54-82.35,18.79-1.31a24.17,24.17,0,0,0,13-4.63L1064,880.1l1.07,1.07s0,0,.08,0c-4.23,36.41-8.78,78.94-10,90.14A205.85,205.85,0,0,0,1034.27,981Z" transform="translate(798.33 79.92)"/><polygon class="cls-4" points="1870.69 1230.92 1835.06 1230.92 1833.62 1163.55 1873.73 1153.54 1870.69 1230.92"/><path class="cls-4" d="M996.66,1307.91H947.33V1304c25.43-8.57,97.4-35.8,104.74-39.25a5.51,5.51,0,0,0,3.07-6.07c-1-4.83-4.1-15.5-4.67-17.43-1.36-4.26-12-16-12.14-16v-.2l-1.48-67.91h35.27s-1.52,38.87-1.52,38.95a3.13,3.13,0,0,0,3.08,3.21h5.21l-3.41,76.52a23,23,0,0,1-1.39,3.65h-32.28C1021.51,1279.49,1004.09,1291.21,996.66,1307.91Z" transform="translate(798.33 79.92)"/><path class="cls-4" d="M1012.78,863.61l-4.84,1.07,7.38-48.47a36.65,36.65,0,0,1,36.5-31.37h29.57a84.68,84.68,0,0,0-11,8.36L1027,839.83a3.13,3.13,0,0,0,.12,4.31l1.52,1.47Z" transform="translate(798.33 79.92)"/><path class="cls-4" d="M1169.72,1293.68l52.74,14.23h-49.58a42,42,0,0,0-2-10.5Z" transform="translate(798.33 79.92)"/><path class="cls-4" d="M1172.18,1246.76s6.48-44.82,6.6-45.11h.74a3.15,3.15,0,0,0,3-2.42l9.26-41.62h55.86S1220,1229,1220,1229.21a3.06,3.06,0,0,0,2.09,4.1l16.61,4.43-5.17,8.24c-6.48,1.23-23.91,4.23-39.45,4.23C1184.73,1250.21,1172.47,1246.88,1172.18,1246.76Z" transform="translate(798.33 79.92)"/><polygon class="cls-4" points="2004.05 1175.64 2070 1175.64 2048.42 1231.38 1991.55 1231.38 2004.05 1175.64"/><polygon class="cls-2" points="2072.37 1169.49 2005.41 1169.49 2011.47 1142.76 2082.42 1143.62 2072.37 1169.49"/><path class="cls-4" d="M1191.7,784.84h86.24c-3.44,27.55-7,54.83-7,54.91-.49,3.85,5.58,4.71,6.11.78,0,0,3.77-31.7,7.79-58.32h2.75c-.29,1.44-.53,2.95-.78,4.51-2.13,14.36,3.86,28.79,5.41,32.28-.86,10-13.57,74.8-22.84,113.59-7.09.7-14.43,1.36-21.16,2.42a87.8,87.8,0,0,0-15.34,3.82c15.18-25.43,36.62-75.83,39.62-82.93,1.52-3.65-4.1-6-5.66-2.37-12.67,29.89-32.89,74-43.63,89.15-1.77.82-3.53,1.68-5.21,2.67l-5.29-64.55,7.22-1.23a3.09,3.09,0,0,0,2.62-3.49c-.33-2.38-5.66-41.71-11.07-62.66C1209.54,805.92,1203,790.91,1191.7,784.84Z" transform="translate(798.33 79.92)"/><polygon class="cls-4" points="2141.02 1231.38 2147.38 1212.47 2148.49 1231.38 2141.02 1231.38"/><path class="cls-4" d="M1308.62,1296.34a60.64,60.64,0,0,0-.58-22.72,16.2,16.2,0,0,0-4.63-8.65c.57-3.12.94-6.44,1.76-9.47a3.31,3.31,0,0,0,3.37-2.14l32.11-95.75h9.92s6.69,110.64,6.73,111.62c.28,4.43,2,5,6.76,4l-1.68,5.5C1356.23,1281.74,1327,1295.6,1308.62,1296.34Z" transform="translate(798.33 79.92)"/><path class="cls-2" d="M1441,1057.79l74.34,1-.73,31.25h-70.58l-3.16-32.24C1441,1057.54,1441,1057.79,1441,1057.79Z" transform="translate(798.33 79.92)"/><path class="cls-4" d="M1515.55,1052.62s-70.41.37-75.46-.94a131.17,131.17,0,0,0-7.79-28.87c-1.48-3.57-7.22-1.39-5.66,2.34,9.31,22.64,9.64,47.94,11.94,72q1.17,12.12,2.33,24.32c.37,3.94,6.52,3.4,6.11-.58l-2.33-24.76h69.79l-1.31,55.28h-66.23l-.41-4.68c-.33-3.94-6.52-3.4-6.15.58l8.49,93.83-18.95,1.92-19.07-226.9a2.88,2.88,0,0,1,2.46-3.12l108.18-9.39a29,29,0,0,0-5.16,16.65Z" transform="translate(798.33 79.92)"/><polygon class="cls-2" points="2388.92 1139.47 2388.92 1139.64 2390.6 1169.94 2384.29 1169.94 2384.94 1139.8 2388.92 1139.47"/><polygon class="cls-4" points="2384.16 1176.1 2390.93 1176.1 2393.97 1231.38 2382.93 1231.38 2384.16 1176.1"/><path class="cls-4" d="M1602.65,1223l5.66-.33a90,90,0,0,1-5.45,7.38,18.92,18.92,0,0,0-5.87,4c-.78.7-1.55,1.39-2.38,2.05l-13.12-34.24a3,3,0,0,0,2.09-2.83l.9-41.46H1596l3.44,62.5C1599.49,1221.75,1602.65,1223,1602.65,1223Z" transform="translate(798.33 79.92)"/><path class="cls-4" d="M1619.3,853.07a3.12,3.12,0,0,0,2.63-3.48c-2-14.23-1.93-21.12-1.77-33.71.08-5.17,0-31.86,0-31.86l70.54,1.27L1662,838a3.1,3.1,0,0,0,1.07,4.11l7.92,4.67-12.31,62a31.28,31.28,0,0,0,2.17,19L1674.79,965,1646,969.58c-.58-7.09-7.09-28.54-7.09-28.54-7.76-39.29-12.47-63.6-15.18-79.8a3.09,3.09,0,0,0-3.57-2.55Z" transform="translate(798.33 79.92)"/><path class="cls-4" d="M1662.44,1096.18h86.12v212.18H1446.82a59.86,59.86,0,0,0-6.44-21.9,17.61,17.61,0,0,0-5.25-6.24l-1.15-13,20.14-1.72a3.11,3.11,0,0,0,2.79-3.36l-9.4-104.49H1513l-1.07,44.25A3.06,3.06,0,0,0,1515,1205l12.55-.53a63,63,0,0,1-6.2,9.64,18.34,18.34,0,0,0-5.82,3.93c-10.79,9.48-23.58,17-34.65,23.09-6.73,3.69-15.05,8.28-18.13,16.77-3.73,10.26,2,20.8,7.55,28.83,2,2.91,5,3.41,8.24,2.38,24.81-7.67,49.5-16.36,73.73-25.18-3.77,2.87-7.09,6.44-8.73,11.12-2.79,8,6.89,26.78,8.32,28.7,2.18,3,5.13,3.16,8.41,2.22,34.49-11.12,114.29-41.5,114.78-41.71,4.8-1.8,6.69-5.33,4.76-10.17-.25-.57-10.66-26.33-14.15-34.77a3.1,3.1,0,0,0,2.46-3.16Z" transform="translate(798.33 79.92)"/><path class="cls-4" d="M1858.79,785.12l35.56.17a36.88,36.88,0,0,1,36.46,42.48l-11.2,73.61A23.94,23.94,0,0,0,1917,896l-19.44-29.61a3.07,3.07,0,0,0,2-4.18s-20.14-52.12-25.43-60.2A72,72,0,0,0,1858.79,785.12Z" transform="translate(798.33 79.92)"/><path class="cls-5" d="M1746.1,754.57c.74.62,5.87,4.59,5.87,4.59-.21,1.28-.45,2.55-.66,3.82,0,.16-14.6.61-16,.74a128.1,128.1,0,0,0-16.28,2.42,65.08,65.08,0,0,0-14.36,4.63,47.4,47.4,0,0,0-6.31,3.49c-3.82,2.62-4.06,4.88-4.23,4.88h-28.25l27.39-42.08,43.8,7.71S1742.7,751.86,1746.1,754.57Z" transform="translate(798.33 79.92)"/><path class="cls-5" d="M1810.77,758.14c.33,3.36.45,7,1.48,10.25-1.81,4-8.37,16.86-19.07,19.11-9.43,2-19.73,1.44-28.67-2.29-2.21-.87-10-4.1-9.39-7.43,0,0,1.93-11.6,2.5-15.34a33.78,33.78,0,0,0,3.28,1.56C1777.1,770.73,1796.09,766.79,1810.77,758.14Z" transform="translate(798.33 79.92)"/><path class="cls-5" d="M1831.56,707.82c-.65,2.83-3.44,11.77,2.26,18.25,0,0-7.83,12-14.68,17.72-8.57,7.13-19.32,15.13-30.76,16.77-10.5,1.52-22,.53-31.12-5.25-12.63-8-21.37-21.12-25.59-35.27a89.18,89.18,0,0,1-2.67-12.63c-1.6-11.19-.45-22.8,1.81-33.83a51.1,51.1,0,0,1,1.31-6c.7.37,1.35.78,2.09,1.15,14.35,7.59,31.25,3.32,46.38,1.11,10.05-1.48,22.8-4.23,34.08-9.31,0,0-4.51,14.68-5.5,18.78-1.6,6.77,1.93,12.67,6.11,14.76a7,7,0,0,0,8.94-1.55c2.14-2.42,4.84-5,8.25-5.58,2.46-.41,6,.41,6.84,3.12,1,3.24-.53,6.76-2.09,9.55C1835.7,702.24,1832.22,704.91,1831.56,707.82Z" transform="translate(798.33 79.92)"/><path class="cls-5" d="M1888.48,778.93l-38,0c-.74-.49-1.44-.94-2.17-1.39-3.37-3.69-9.85-6.07-18-9.43-2.62-1.07-12.38-2.55-12.38-2.55-.37-2.13-.78-5.45-1-6.84,0,0,6.89,1.14,7.26,1.06l27-5.45a36.88,36.88,0,0,1,31.66,8.61l8.73,7.75A4.73,4.73,0,0,1,1888.48,778.93Z" transform="translate(798.33 79.92)"/><path class="cls-5" d="M1564.31,661.56c0,1-.08,2.14-.12,3.24,0,0-12.64,20.59-22.89,22.89-28.7,6.39-38.55-11.45-40.11-21.49a73.06,73.06,0,0,0,23.91,4.1,60.78,60.78,0,0,0,9.52-.7C1546.14,667.8,1556.11,665.42,1564.31,661.56Z" transform="translate(798.33 79.92)"/><path class="cls-5" d="M1603.1,574.3c-.61,4-4.06,6.6-6.56,9.47-6.64,7.59-10.13,9.14-11.53,9.43s-3.27-1.47-5-1.47a6,6,0,0,0-5.79,4.14c-4.75,12.42-12.75,18.21-25.22,18.21q-11.13,0-27.15-6.44c-4.67-1.89-11.11-4.47-17.71-4.47a21.37,21.37,0,0,0-9.39,2.05c-6.44,3.15-13.94-7.1-17.51-13.33-.33-2-.58-3.94-.78-5.95a91.71,91.71,0,0,1,.24-20.67,169.41,169.41,0,0,1,3-17.18,64,64,0,0,0,32.52-13.78,27.79,27.79,0,0,0,15.62,12.8,33.11,33.11,0,0,0,20.39-.58c.94-.32,1.84-.65,2.78-1.06a.71.71,0,0,0,.21-.08,101.11,101.11,0,0,0,10.33-6.73c-.45,5.53.13,12.75,2.83,17.43,7.55,13.08,16.69,12.75,16.94,12.75a9.28,9.28,0,0,0-.7,3.28,3.1,3.1,0,0,0,3.08,3.08,3.07,3.07,0,0,0,3.07-3.08c0-1.47,3-5.2,5.37-6.72a7.22,7.22,0,0,1,8.45.45C1602.9,567.57,1603.72,570.4,1603.1,574.3Z" transform="translate(798.33 79.92)"/><path class="cls-5" d="M1236.15,756.83,1286.6,748c-2.38,10.74-5.25,23.42-5.87,28.21-.24,2-.49,3.94-.74,6l-108.71-.08a7.81,7.81,0,0,1-5.17-13.62l8.7-7.75a39.6,39.6,0,0,1,34.32-9.31Z" transform="translate(798.33 79.92)"/><path class="cls-6" d="M643.25,473.13a215.52,215.52,0,0,0-.08,21.81c0,.7.08,1.4.12,2.05,0,.95.12,1.81.2,2.67,0,.7.13,1.35.21,2,.2,2,.49,3.9.78,5.62.24,1.39.53,2.7.82,3.94,0,.16.08.32.12.53.29.94.53,1.8.78,2.62,0,.08,0,.17.08.25.37,1,.74,2,1.15,2.83a.3.3,0,0,0,.08.16c0,.08,0,.12,0,.17a19.91,19.91,0,0,0,1,1.84s.08.12.12.17h0a11.91,11.91,0,0,1-6-2.18c-8.81-5.86-17.92-24.32-25.75-62.33-10.5-50.85-3.49-120-3.49-120s24.49,43.92,38.14,88.45c-1,3.82-1.92,7.8-2.83,11.86-.37,1.55-.69,3.15-1,4.75-.13.5-.21,1-.33,1.52l-1,5.29c-.08.49-.16,1-.24,1.44-.62,3.36-1.15,6.72-1.56,10-.16,1.23-.33,2.46-.45,3.65-.21,1.64-.37,3.24-.49,4.84C643.49,469.19,643.33,471.16,643.25,473.13Z" transform="translate(798.33 79.92)"/><path class="cls-6" d="M725.27,363.55s-7.14,63.85-26.54,107.73c-10.87,24.65-20.26,39.12-28.09,46.34h-5.29v-.08c.21-.37.41-.78.62-1.23s.33-.66.49-1c.53-1.27,1.11-2.7,1.64-4.34.2-.74.45-1.48.66-2.3a102.87,102.87,0,0,0,2.62-13c.12-.86.25-1.72.37-2.62.2-1.77.41-3.61.61-5.58s.37-4,.54-6.11.24-4.39.37-6.68c.12-2.51.16-5,.16-7.63,0-2.26,0-4.55-.12-6.85-.17-4.6-.45-9.27-.91-13.86-.08-1-.16-1.93-.28-2.87-.13-1.48-.29-3-.45-4.39l9.1-15.63C701,391,725.27,363.55,725.27,363.55Z" transform="translate(798.33 79.92)"/><path class="cls-3" d="M673.43,467c0,2.58,0,5.12-.16,7.63-.13,2.29-.25,4.55-.37,6.68s-.33,4.14-.54,6.11-.41,3.81-.61,5.58c-.12.9-.25,1.76-.37,2.62a102.87,102.87,0,0,1-2.62,13c-.21.82-.46,1.56-.66,2.3-.53,1.64-1.11,3.07-1.64,4.34-.16.37-.33.7-.49,1s-.41.86-.62,1.23c0,0,0,0,0,.08h-17.8c0,.08,0,.12,0,.17s-.08-.13-.08-.17a.3.3,0,0,1,0-.16c-.41-.86-.78-1.81-1.15-2.83,0-.08,0-.17-.08-.25-.25-.82-.49-1.68-.78-2.62,0-.21-.08-.37-.12-.53-.29-1.24-.58-2.51-.82-3.94-.29-1.72-.58-3.61-.78-5.62-.08-.66-.17-1.31-.21-2-.08-.86-.16-1.72-.2-2.67,0-.65-.08-1.35-.12-2.05a215.52,215.52,0,0,1,.08-21.81c.08-2,.24-3.94.41-5.95.12-1.6.28-3.2.49-4.84.12-1.23.29-2.42.45-3.65.41-3.32.94-6.68,1.56-10,.08-.46.16-.95.24-1.44l1-5.29c.12-.49.2-1,.33-1.52.33-1.6.65-3.2,1-4.75.91-4.06,1.85-8,2.83-11.86,5.17-20.09,10.79-35.39,10.79-35.39a417.83,417.83,0,0,1,9.31,50.65c.16,1.43.32,2.91.45,4.39.12.94.2,1.88.28,2.87.46,4.59.74,9.26.91,13.86C673.39,462.47,673.43,464.76,673.43,467Z" transform="translate(798.33 79.92)"/><path class="cls-6" d="M691.49,601H618.64a15.7,15.7,0,0,1-15.52-15.87V517.63H707V585.1A15.7,15.7,0,0,1,691.49,601Z" transform="translate(798.33 79.92)"/><path class="cls-4" d="M1442.39,813.58c-1.15-8.4-1.35-20.83-.78-34.24.41-9.92,1.31-20.42,2.58-30.22-.24-.29-12.26-26.37-37.52-35.11-1.43-.49-2.83-1.14-4.31-1.68-3,2.95-44,44.33-49.17,50.07-4.18,4.76-12.34.74-12.34-5.16,0-11.81,2.71-40.89,3.45-48.31-3,.74-25.64,6.48-26.13,6.64-13.65,4.27-22.14,7.47-24.36,19.52-.78,4.27-2.17,11-3.85,18.13C1284.83,775,1277,840.53,1277,840.53c-.37,2.66-3.24,3.11-4.92,2l-1.89,9.3a3,3,0,0,1,2.26,4.1c-3,7.1-24.44,57.5-39.62,82.93a87.8,87.8,0,0,1,15.34-3.82c6.73-1.06,14.07-1.72,21.16-2.42,9.27-38.79,22-103.63,22.84-113.59-1.55-3.49-7.54-17.92-5.41-32.28,2.71-17.92,7.67-26.08,12-33.26a67.19,67.19,0,0,0,5.45-10.25c1.52-3.69,7.18-1.39,5.7,2.3a75.7,75.7,0,0,1-5.86,11.15c-4.27,7-8.7,14.27-11.2,31-2.17,14.27,5.13,29.23,5.21,29.4a3.6,3.6,0,0,1,.33,1.47c-.29,7.35-12.84,72.34-22.64,113.48a208.21,208.21,0,0,0,25-3.53c11.44-8,21.24-13.49,31.61-19.36,6-3.4,12.22-6.89,19.11-11.07,2.63-1.6,10.17-5.41,19.69-10.25,13-6.56,28.83-14.64,35.55-18.78-.78-14.89,2.44-87.68.82-97.28-.65-3.89,6-4.3,6.15-.32.29,5.74-1.64,84.06-.73,99a3.06,3.06,0,0,1-1.36,2.75c-5.9,4-23.49,12.92-37.64,20.1-9.06,4.55-16.86,8.52-19.32,10-7,4.22-13.2,7.75-19.27,11.15-5.91,3.33-11.61,6.56-17.51,10.18a44.52,44.52,0,0,0,3,7.66,106.12,106.12,0,0,0,6.44,12.22c1.44,2.34-2.13,4.35-3.48,2.22a103.67,103.67,0,0,1-6.65-12.72,53.32,53.32,0,0,1-3-7.13c-2.75,1.72-8.66,5.66-8.74,5.74.78,1.81,2.26,4.72,4.1,8a44.55,44.55,0,0,0,5.62,8.77,34.46,34.46,0,0,0,5.17,5.83c9.06-3,42.24-14.68,44.17-15.38,29.32-10.83,63.11-26.9,69.38-35.35,1.8-1.45,1.77-11.69,2.09-16.2.13-1.31.58-3.73,1.32-7.42,2.66-13.78,8.24-42.53,5-67A.27.27,0,0,1,1442.39,813.58ZM1361,947.6q-7.69,2.77-16,5.66a246.56,246.56,0,0,0,35.39-1.56h.13c16.65-1.76,33.71-4.67,49-7.54l0-.25,2.79-28.5c-11,8.53-34,18.54-65.57,30.1C1364.92,946.21,1363,946.9,1361,947.6Z" transform="translate(798.33 79.92)"/><path class="cls-5" d="M874.82,1205.52c-1.65.21-5.86,4.13-7.21,5.11a32.4,32.4,0,0,1-30.51,3.73c-3.94-1.59-7.71-4.18-9.64-7.87a1,1,0,0,0-.16-.25,72.49,72.49,0,0,0,22-9.76h0Z" transform="translate(798.33 79.92)"/><path class="cls-6" d="M1065.76,1005.14c5.91-1.64,11.85-3.37,17.19-6.2a31.28,31.28,0,0,0-3.61,15.46l-2.18,55.74-46.46,11.52,3.08,143.9-46.3,5.91-21-164.49-17.76,2.13-55.15,142.42-44.29-15,43.06-159.07c4-15.05,16.48-25.47,30.3-26.9l114.13-26.86c-10.91,5.74-20.42,12.46-23.58,19.07-2.13,4.51-2.71,11.32,1.89,14.06,2.7,1.68,6,.9,8.85.08C1037.92,1013,1051.86,1009,1065.76,1005.14Z" transform="translate(798.33 79.92)"/><path class="cls-6" d="M858,1164.51l-5.41,20a10.14,10.14,0,0,0,4.22.91,10.47,10.47,0,0,0,1.19-20.88Zm16.86,30.76a5.13,5.13,0,1,0,5.12,5.13A5.13,5.13,0,0,0,874.82,1195.27Zm0-51a5.13,5.13,0,1,0,5.12,5.12A5.12,5.12,0,0,0,874.82,1144.3Zm25.62-30.8A10.46,10.46,0,1,0,910.9,1124,10.44,10.44,0,0,0,900.44,1113.5Zm0-51A10.46,10.46,0,1,0,910.9,1073,10.45,10.45,0,0,0,900.44,1062.52Zm8.13-47.12a36.14,36.14,0,0,0-13.74,15.42,10,10,0,0,0,5.61,1.69,10.48,10.48,0,0,0,10.46-10.46A10.63,10.63,0,0,0,908.57,1015.4Zm-8.13,149.07a10.46,10.46,0,0,0,0,20.92,10.12,10.12,0,0,0,3.53-.62v0l5.7-14.68A10.37,10.37,0,0,0,900.44,1164.47Zm19.94-71.11a5.13,5.13,0,1,0,5.12,5.13A5.13,5.13,0,0,0,920.38,1093.36Zm0-51a5.13,5.13,0,1,0,5.12,5.13A5.13,5.13,0,0,0,920.38,1042.39Zm23.74-30.84a10.48,10.48,0,1,0,10.46,10.5A10.49,10.49,0,0,0,944.12,1011.55Zm0,51a10.46,10.46,0,0,0-.9,20.88l5.53-14.27,4.8-.58A10.36,10.36,0,0,0,944.12,1062.52Zm21.82-20.13a5.13,5.13,0,1,0,0,10.25,5.3,5.3,0,0,0,.82-.08,33.6,33.6,0,0,1,2.83-8.61A4.92,4.92,0,0,0,965.94,1042.39Zm21.86-30.84a10.47,10.47,0,0,0-4.48,19.93,10.2,10.2,0,0,0,4.48,1,10.39,10.39,0,0,0,9.47-6.12,9.7,9.7,0,0,0,1-4.34A10.48,10.48,0,0,0,987.8,1011.55Zm23.74,30.84a5.13,5.13,0,1,0,5.12,5.13A5.13,5.13,0,0,0,1011.54,1042.39Zm24.11-29.94-13.53,4.92a10.61,10.61,0,0,0-1.11,4.68,10.46,10.46,0,1,0,14.64-9.6Zm21.45,29.94a5.13,5.13,0,1,0,5.13,5.13A5.13,5.13,0,0,0,1057.1,1042.39Zm18-30.84a10.48,10.48,0,1,0,10.46,10.5A10.48,10.48,0,0,0,1075.14,1011.55Z" transform="translate(798.33 79.92)"/><path class="cls-6" d="M998.25,1174.93a10.45,10.45,0,0,1-10.45,10.46,10.18,10.18,0,0,1-6.48-2.3l-1.85-14.48a10.45,10.45,0,0,1,18.78,6.32Z" transform="translate(798.33 79.92)"/><path class="cls-6" d="M998.25,1124a10.46,10.46,0,1,1-10.45-10.45A10.44,10.44,0,0,1,998.25,1124Z" transform="translate(798.33 79.92)"/><path class="cls-6" d="M998.25,1073a10.46,10.46,0,1,1-20.91,0,10.45,10.45,0,0,1,15.46-9.18h0A10.49,10.49,0,0,1,998.25,1073Z" transform="translate(798.33 79.92)"/><path class="cls-6" d="M998.25,1225.86a10.29,10.29,0,0,1-.94,4.35h0l-9.8,1.23-2-15.79a10.91,10.91,0,0,1,2.34-.24A10.46,10.46,0,0,1,998.25,1225.86Z" transform="translate(798.33 79.92)"/><path class="cls-6" d="M1016.66,1200.4a5.13,5.13,0,1,1-5.12-5.13A5.12,5.12,0,0,1,1016.66,1200.4Z" transform="translate(798.33 79.92)"/><path class="cls-6" d="M1016.66,1149.42a5.13,5.13,0,1,1-5.12-5.12A5.13,5.13,0,0,1,1016.66,1149.42Z" transform="translate(798.33 79.92)"/><path class="cls-6" d="M1016.66,1098.49a5.13,5.13,0,1,1-5.12-5.13A5.12,5.12,0,0,1,1016.66,1098.49Z" transform="translate(798.33 79.92)"/><path class="cls-6" d="M1016.66,1047.52a5.13,5.13,0,1,1-5.12-5.13A5.12,5.12,0,0,1,1016.66,1047.52Z" transform="translate(798.33 79.92)"/><path class="cls-6" d="M1021,1124a10.46,10.46,0,0,1,10.38-10.45l.41,20.91h-.33A10.45,10.45,0,0,1,1021,1124Z" transform="translate(798.33 79.92)"/><path class="cls-6" d="M1021,1174.93a10.46,10.46,0,0,1,10.46-10.46,8,8,0,0,1,1,0l.45,20.79a13.06,13.06,0,0,1-1.43.09A10.46,10.46,0,0,1,1021,1174.93Z" transform="translate(798.33 79.92)"/><path class="cls-6" d="M1033.56,1215.61l.21,10-12.68,1.6c0-.41-.08-.87-.08-1.32a10.47,10.47,0,0,1,10.46-10.45A11.58,11.58,0,0,1,1033.56,1215.61Z" transform="translate(798.33 79.92)"/><path class="cls-6" d="M1041.93,1022.05a10.46,10.46,0,0,1-20.92,0,10.61,10.61,0,0,1,1.11-4.68l13.53-4.92A10.45,10.45,0,0,1,1041.93,1022.05Z" transform="translate(798.33 79.92)"/><path class="cls-6" d="M1039.63,1079.46l-8.94,2.21,0,1.73a10.45,10.45,0,1,1,11.2-10.42A10.2,10.2,0,0,1,1039.63,1079.46Z" transform="translate(798.33 79.92)"/><path class="cls-6" d="M1062.23,1047.52a5.13,5.13,0,1,1-5.13-5.13A5.13,5.13,0,0,1,1062.23,1047.52Z" transform="translate(798.33 79.92)"/><path class="cls-6" d="M1064.69,1022.05a10.46,10.46,0,1,1,10.45,10.46A10.48,10.48,0,0,1,1064.69,1022.05Z" transform="translate(798.33 79.92)"/><path class="cls-6" d="M1084.49,1068.31l-19.8,4.92V1073a10.45,10.45,0,0,1,19.8-4.67Z" transform="translate(798.33 79.92)"/><path class="cls-7" d="M998.25,1022.05a9.7,9.7,0,0,1-1,4.34,10.39,10.39,0,0,1-9.47,6.12,10.2,10.2,0,0,1-4.48-1,10.47,10.47,0,1,1,14.93-9.43Z" transform="translate(798.33 79.92)"/><path class="cls-7" d="M1041.93,1022.05a10.46,10.46,0,0,1-20.92,0,10.61,10.61,0,0,1,1.11-4.68l13.53-4.92A10.45,10.45,0,0,1,1041.93,1022.05Z" transform="translate(798.33 79.92)"/><path class="cls-7" d="M1085.6,1022.05a10.46,10.46,0,1,1-10.46-10.5A10.48,10.48,0,0,1,1085.6,1022.05Z" transform="translate(798.33 79.92)"/><path class="cls-7" d="M954.58,1022.05a10.46,10.46,0,1,1-10.46-10.5A10.48,10.48,0,0,1,954.58,1022.05Z" transform="translate(798.33 79.92)"/><path class="cls-7" d="M910.9,1022.05a10.48,10.48,0,0,1-10.46,10.46,10,10,0,0,1-5.61-1.69,36.14,36.14,0,0,1,13.74-15.42A10.63,10.63,0,0,1,910.9,1022.05Z" transform="translate(798.33 79.92)"/><path class="cls-7" d="M925.5,1047.52a5.13,5.13,0,1,1-5.12-5.13A5.13,5.13,0,0,1,925.5,1047.52Z" transform="translate(798.33 79.92)"/><path class="cls-7" d="M969.59,1044a33.6,33.6,0,0,0-2.83,8.61,5.3,5.3,0,0,1-.82.08,5.13,5.13,0,1,1,0-10.25A4.92,4.92,0,0,1,969.59,1044Z" transform="translate(798.33 79.92)"/><path class="cls-7" d="M1016.66,1047.52a5.13,5.13,0,1,1-5.12-5.13A5.12,5.12,0,0,1,1016.66,1047.52Z" transform="translate(798.33 79.92)"/><path class="cls-7" d="M1062.23,1047.52a5.13,5.13,0,1,1-5.13-5.13A5.13,5.13,0,0,1,1062.23,1047.52Z" transform="translate(798.33 79.92)"/><path class="cls-7" d="M998.25,1073a10.46,10.46,0,1,1-20.91,0,10.45,10.45,0,0,1,15.46-9.18h0A10.49,10.49,0,0,1,998.25,1073Z" transform="translate(798.33 79.92)"/><path class="cls-7" d="M1039.63,1079.46l-8.94,2.21,0,1.73a10.45,10.45,0,1,1,11.2-10.42A10.2,10.2,0,0,1,1039.63,1079.46Z" transform="translate(798.33 79.92)"/><path class="cls-7" d="M1084.49,1068.31l-19.8,4.92V1073a10.45,10.45,0,0,1,19.8-4.67Z" transform="translate(798.33 79.92)"/><path class="cls-7" d="M953.55,1068.55l-4.8.58-5.53,14.27a10.46,10.46,0,1,1,10.33-14.85Z" transform="translate(798.33 79.92)"/><path class="cls-7" d="M910.9,1073a10.46,10.46,0,1,1-10.46-10.46A10.45,10.45,0,0,1,910.9,1073Z" transform="translate(798.33 79.92)"/><path class="cls-7" d="M925.5,1098.49a5.13,5.13,0,1,1-5.12-5.13A5.12,5.12,0,0,1,925.5,1098.49Z" transform="translate(798.33 79.92)"/><path class="cls-7" d="M1016.66,1098.49a5.13,5.13,0,1,1-5.12-5.13A5.12,5.12,0,0,1,1016.66,1098.49Z" transform="translate(798.33 79.92)"/><path class="cls-7" d="M998.25,1124a10.46,10.46,0,1,1-10.45-10.45A10.44,10.44,0,0,1,998.25,1124Z" transform="translate(798.33 79.92)"/><path class="cls-7" d="M1031.8,1134.41h-.33a10.46,10.46,0,0,1-.08-20.91Z" transform="translate(798.33 79.92)"/><path class="cls-7" d="M910.9,1124a10.46,10.46,0,1,1-10.46-10.45A10.44,10.44,0,0,1,910.9,1124Z" transform="translate(798.33 79.92)"/><path class="cls-7" d="M879.94,1149.42a5.13,5.13,0,1,1-5.12-5.12A5.13,5.13,0,0,1,879.94,1149.42Z" transform="translate(798.33 79.92)"/><path class="cls-7" d="M1016.66,1149.42a5.13,5.13,0,1,1-5.12-5.12A5.13,5.13,0,0,1,1016.66,1149.42Z" transform="translate(798.33 79.92)"/><path class="cls-7" d="M998.25,1174.93a10.45,10.45,0,0,1-10.45,10.46,10.18,10.18,0,0,1-6.48-2.3l-1.85-14.48a10.45,10.45,0,0,1,18.78,6.32Z" transform="translate(798.33 79.92)"/><path class="cls-7" d="M1032.9,1185.3a6.71,6.71,0,0,1-1.43.09c-6.24-.75-11.17-5.83-10.46-10.46.88-5.72,4.68-10.46,10.46-10.46a8,8,0,0,1,1,0Z" transform="translate(798.33 79.92)"/><path class="cls-7" d="M909.67,1170.05l-5.7,14.68v0a10.12,10.12,0,0,1-3.53.62,10.46,10.46,0,1,1,9.23-15.34Z" transform="translate(798.33 79.92)"/><path class="cls-7" d="M867.23,1174.93a10.46,10.46,0,0,1-10.46,10.46,10.14,10.14,0,0,1-4.22-.91l5.41-20A10.52,10.52,0,0,1,867.23,1174.93Z" transform="translate(798.33 79.92)"/><path class="cls-7" d="M879.94,1200.4a5.13,5.13,0,1,1-5.12-5.13A5.12,5.12,0,0,1,879.94,1200.4Z" transform="translate(798.33 79.92)"/><path class="cls-7" d="M1016.66,1200.4a5.13,5.13,0,1,1-5.12-5.13A5.12,5.12,0,0,1,1016.66,1200.4Z" transform="translate(798.33 79.92)"/><path class="cls-7" d="M998.25,1225.86a10.29,10.29,0,0,1-.94,4.35h0l-9.8,1.23-2-15.79a10.91,10.91,0,0,1,2.34-.24A10.46,10.46,0,0,1,998.25,1225.86Z" transform="translate(798.33 79.92)"/><path class="cls-7" d="M1033.77,1225.58l-12.68,1.6c0-.41-.08-.87-.08-1.32a10.47,10.47,0,0,1,10.46-10.45,11.58,11.58,0,0,1,2.09.2Z" transform="translate(798.33 79.92)"/><path class="cls-5" d="M1035.21,1228.88s-22.6,1.72-23.25,3.24a32.45,32.45,0,0,1-24,19.19c-4.18.7-8.78.45-12.35-1.68a2.65,2.65,0,0,0-1.22-.33,73.13,73.13,0,0,0,13.53-17.88l45.89-5.86h0S1036.23,1231.05,1035.21,1228.88Z" transform="translate(798.33 79.92)"/><path class="cls-5" d="M1063,876.45l-34.85,25.43a21.12,21.12,0,0,1-11.36,4l-85.83,4.34c-12.84,7.59-24.86-1.43-30-1.06-11.4.82-41.5-.87-41.87-5.91-.41-5.45,6.07-9,10.95-11.48a75.45,75.45,0,0,1,46-7c1.35.24,13.29.49,13.29.49l83.61-18.42,18.5-21a2.19,2.19,0,0,0,.49.57l29.85,29.16A6.21,6.21,0,0,0,1063,876.45Z" transform="translate(798.33 79.92)"/><path class="cls-8" d="M1203.1,878.91l.53,109.29a5.89,5.89,0,0,1-5.65,5.95l-115.36,4.79c-14.11-.16-25.63-10.7-26.13-24,0,0,5.79-54.66,10.83-97.92a5.83,5.83,0,0,1-5.54-1.48l-29.85-29.16a5.89,5.89,0,0,1-.2-8.24l39.65-42.65c12.22-10.83,27.52-17.55,37.32-16.81l-1.8,11.23c-4.68,18.46,12.67,25.84,31.45,17.88,5.86-2.5,16.4-14.8,22-25.59l-1.07-4.06,7.55.41c.41,0,.82.13,1.23.21,7.26,1.88,13.66,4.43,19,8.4,10.33,4.39,17.59,18.42,19.93,27.48,5.49,21.32,11,62.29,11,62.29Z" transform="translate(798.33 79.92)"/><path class="cls-5" d="M1211.8,945.06c.16,2-4.39,5.94-6.24,6.35l-95.88,22c-18.86,3.32-28.54,23.2-28.37,22.38-2.67,1.48-42,14.11-55.9,18-2.26.66-6.27,1.64-8.94-.08-2.87-1.89-2.17-7-.7-10.13,4.43-9.23,23.34-19,39.5-25.59,2-.86,4-1.64,5.86-2.34,9.31-3.57,16.77-5.74,18.54-5.74a2.79,2.79,0,0,0,1.88-.16l87-37.36-4.2-45.44,42.16-5.62S1211.8,945,1211.8,945.06Z" transform="translate(798.33 79.92)"/><path class="cls-5" d="M1191.05,703.19c-6.11,15.09-9.6,11.81-14.89,32.8.2-.16.45-.28.66-.45A90.49,90.49,0,0,1,1155,758.3c1.68,10.46,5.37,23.91,5.37,23.91-5.62,10.79-16.16,23.09-22,25.59-18.78,8-36.13.58-31.45-17.88l3.56-21.16c-13.94-4.76-23.62-18-29.32-35a109.52,109.52,0,0,1-4.22-17.18,135,135,0,0,1-1.85-17.56c-.57-12.71,0-23.62,2.13-32.72,0,0,0,0,0,.08,2.1,4.1,8.17,7.06,12.27,9.19,10.62,5.53,26.41,0,38.34-.74,27.27-1.64,40.52,24,40.52,24C1174.52,682.23,1197.32,687.56,1191.05,703.19Z" transform="translate(798.33 79.92)"/><path d="M1108.46,731.88a33,33,0,0,1-5.36-.47,5.14,5.14,0,0,1-3.64-3.31,5.6,5.6,0,0,1,.27-4.33l5.72-24.56a3.08,3.08,0,0,1,6,1.39l-5.82,25c2.78.29,6,.13,6.75-.5a3.08,3.08,0,1,1,3.9,4.76C1114.32,731.45,1111.22,731.88,1108.46,731.88Z" transform="translate(798.33 79.92)"/><path d="M1111.73,749.48a21.32,21.32,0,0,1-7.49-1.29,16.26,16.26,0,0,1-5.79-3.7,3.07,3.07,0,0,1,4.36-4.33,10.32,10.32,0,0,0,3.61,2.28c3.91,1.48,9.72,1,12.68-1,.27-.18.53-.38.79-.58l.38-.29a3.07,3.07,0,0,1,3.74,4.88l-.32.24c-.38.3-.74.57-1.12.83A19.75,19.75,0,0,1,1111.73,749.48Z" transform="translate(798.33 79.92)"/><path d="M1160.39,660.11a2,2,0,0,1-1.42-.57c-3.87-3.72-8.92-5.89-15.46-6.62a2.05,2.05,0,1,1,.46-4.08c7.46.85,13.3,3.38,17.84,7.74a2.05,2.05,0,0,1-1.42,3.53Z" transform="translate(798.33 79.92)"/><path class="cls-9" d="M1124.06,727.48a13.09,13.09,0,1,0,13.25-12.91A13.09,13.09,0,0,0,1124.06,727.48Z" transform="translate(798.33 79.92)"/><path d="M1175.75,712.13a2,2,0,0,1-1.5-3.45c2.6-2.79,4.73-6.46,4.75-8.18a2.06,2.06,0,0,1,2-2h0a2.05,2.05,0,0,1,2,2.07c0,3.27-3,7.84-5.86,10.94A2,2,0,0,1,1175.75,712.13Z" transform="translate(798.33 79.92)"/><path d="M1091.46,708.33h0a3.08,3.08,0,0,1-3-3.12l0-4.05a3.08,3.08,0,0,1,3.08-3h0a3.09,3.09,0,0,1,3,3.12l-.06,4A3.07,3.07,0,0,1,1091.46,708.33Z" transform="translate(798.33 79.92)"/><path d="M1131.4,711.46h0a3.08,3.08,0,0,1-3-3.12l0-3.73a3.08,3.08,0,0,1,3.08-3h0a3.09,3.09,0,0,1,3,3.12l0,3.73A3.08,3.08,0,0,1,1131.4,711.46Z" transform="translate(798.33 79.92)"/><path class="cls-9" d="M1079.75,715.06c.17,1,.37,2,.57,3a120.68,120.68,0,0,0,4.58,17c.6,1.7,1.24,3.37,1.9,5,5.56-1.28,9.66-6.74,9.48-13.13-.2-7.25-5.78-12.93-12.44-12.75A10.8,10.8,0,0,0,1079.75,715.06Z" transform="translate(798.33 79.92)"/><path d="M1229.25,705.28a2.09,2.09,0,0,1-.8-.17,2,2,0,0,1-1.08-2.69,16.84,16.84,0,0,0,1.1-9.33,36.1,36.1,0,0,0-3.18-8.8c-1.73-3.78-3.52-7.68-3.7-12.07a32.58,32.58,0,0,1,1.06-8.31l1.1-5a2,2,0,1,1,4,.88l-1.09,5a29.07,29.07,0,0,0-1,7.28c.14,3.58,1.7,7,3.33,10.53a39.55,39.55,0,0,1,3.49,9.82,21,21,0,0,1-1.37,11.63A2.05,2.05,0,0,1,1229.25,705.28Z" transform="translate(798.33 79.92)"/><path d="M1138.37,694.41a2.58,2.58,0,0,1-.39,0,67.11,67.11,0,0,0-12.1-1.14,2.05,2.05,0,0,1,0-4.1h0a70.88,70.88,0,0,1,12.85,1.21,2.05,2.05,0,0,1-.37,4.07Z" transform="translate(798.33 79.92)"/><path d="M1086.84,694.41a2.05,2.05,0,0,1-.38-4.07,71.08,71.08,0,0,1,12.86-1.21h0a2,2,0,1,1,0,4.1,67.28,67.28,0,0,0-12.1,1.14A2.58,2.58,0,0,1,1086.84,694.41Z" transform="translate(798.33 79.92)"/><path class="cls-5" d="M1122.81,1201.53l-4.6,74.8a25.3,25.3,0,0,1-1.72,4.63H1094.1a51.36,51.36,0,0,0-15,2.22,25.31,25.31,0,0,0,2.42-6.24l3.49-77.62h35.59a3.68,3.68,0,0,0,.78,1.39A2.86,2.86,0,0,0,1122.81,1201.53Z" transform="translate(798.33 79.92)"/><path class="cls-5" d="M1165.05,1299.25a37.68,37.68,0,0,1,1.8,11.73c0,.94,0,1.89-.12,2.87a7.51,7.51,0,0,1-7.3,6.93l-9.68-9.8-27.52-27.8a27.18,27.18,0,0,0,2-5.7l4.68-75.83h43.47l-6.2,43.35a21.38,21.38,0,0,0-4.22-.41c-22.88,0-28.38,34.94-28.62,36.41a3.13,3.13,0,0,0,2.29,3.45l27,7.3Z" transform="translate(798.33 79.92)"/><path class="cls-3" d="M1046.69,1328.29v-1.52H994.41v-.41c0-23.95,20.54-43.35,45.89-43.35h34.2l3,3.9a48.48,48.48,0,0,1,15.13-2.42h24.73l42.12,42.61Z" transform="translate(798.33 79.92)"/><path class="cls-5" d="M1432.3,1283.46c-3.36,14.69-28,20.63-34.94,15-20.34-16.65-31.9-17.59-32.39-17.59l3.4-11.07,62.25-5.37Z" transform="translate(798.33 79.92)"/><path class="cls-3" d="M1339.58,959.12c-9.55,3.86-19.93,11.9-22.68,20L1306.07,1007l-19.6,50.61-76.54.09-32.87,137.82h-50.28l-49.9-2.34,7-179.41c-.86-13.66,13.24-31.62,27.06-34.37l102.57-23.45h0c1.84,4.26,22.51,8.77,36.38,11.44,0,0,6.14-.13,8.4-.13,3.49,0,31.83-1.8,40.64-2.09l5.86-.16c4.11-.17,9.19-1.52,12.43-4.55a10.09,10.09,0,0,0,1,.74,3.18,3.18,0,0,0,2.71.36c3.32-1.1,9.92-3.28,10-3.28Q1335.1,958.88,1339.58,959.12Z" transform="translate(798.33 79.92)"/><path class="cls-10" d="M1620.57,858.65q3,22.58,6.77,49.17l5.17,32.36c-7,2.91-30.64,11.48-64.59,11.48-5.74,0-11.49-.2-17.19-.7-11.76-1-23.45-3-35.22-4.34-6.89-.74-13.82-1.36-20.71-2-12.22-1.19-24.89-1.73-37.24-1.73l-20.13-.24c.46-4.12,1.54-33.53,5.66-58.75,2.93-17.89,5.66-35.6,6.11-42.21,5.24,20,12.67,44,20.09,53.8,2.38,3.16,7.34-.54,4.92-3.69-8.73-11.57-18.94-48.27-25.63-78.78a1.23,1.23,0,0,1-.08-.37s0-.08,0-.12c-2.75-21.16.16-67.71,7.5-90.26,1.23-3.78-4.63-5.7-5.86-1.89a129.84,129.84,0,0,0-4.06,17c.57-3.2-6-8.78-8-10.87a62.51,62.51,0,0,0-12.67-10c-1.84-1.1-5-2.17-6.48-3.65,0,0-.12,0-.16-.08-1.23-.61-2.5-1.23-3.82-1.84l52,2.5c3,.12,4.39-4.55,4.93-6.73,1.31-5.08.24-10.66-1.6-16-.7-2.09-3.12-8-3.49-8.9,0,0-4.22-8.28-5.09-10.54a69.3,69.3,0,0,1,9.6-5.38c5.41-2.16,5.41-2.16,10.79-2.78.94.57,6.4,4.23,7.13,4.63.49.29,1,.54,1.56.82a62.93,62.93,0,0,0,8.82,3.66,32,32,0,0,0,5.33,9.3c4.1,4.84,11.77,10.63,24.89,10.63,4.51,0,9.56-.37,13.82-1.93,15.75-5.74,23.21-23.91,23.21-24,.17,0,7.59.57,11.07.9-.49,1.07,4.39.45,4.23.45,17.92,2.09,34.49,6.11,44.94,15.3l33.67,23.78,8.7,6.15,22.1,15.63-32.93,50.65-39.29-1.24s-5.94-.24-5.94,1.28l1.18.12s-.87,13.5-.57,25.1c.38,14.43,3.45,30.51,5.78,48.59.25,1.89.5,3.78.74,5.7Z" transform="translate(798.33 79.92)"/><path class="cls-3" d="M1643.17,973.11l-2.63.41-3.15.49-9.11,1.48-76.07,12.18c-15.13,4.1-32.81,14.56-32.81,32.72l-.86,35.31-77.79-1,2.71,92.39,10.37,115.32-93.42,8.07-9.47-157.27-46.79,139.64-82.8-22,96.9-250.16c3.2-9.26,18.17-18.82,27.89-20.17l110.72-17.6h.7c12.35,0,25,.54,37.24,1.73,6.89.65,13.82,1.27,20.71,2,11.77,1.31,23.46,3.32,35.22,4.34,5.7.5,11.45.7,17.19.7,33.95,0,57.57-8.57,64.59-11.48l-2-12.51,8.65,22.68A86.09,86.09,0,0,1,1643.17,973.11Z" transform="translate(798.33 79.92)"/><path class="cls-8" d="M1634.47,934.33H1433.85c.16-1.85.37-3.89.57-6.15h198.81Q1633.85,931.2,1634.47,934.33Z" transform="translate(798.33 79.92)"/><path class="cls-8" d="M1630.12,912.19h-194.3c.2-2,.37-4,.53-6.16h192.58C1629.3,908,1629.71,910.05,1630.12,912.19Z" transform="translate(798.33 79.92)"/><path class="cls-8" d="M1625.81,890H1437.62c0-.37.45-3.73.86-6.15h186.18C1625,885.86,1625.4,887.91,1625.81,890Z" transform="translate(798.33 79.92)"/><path class="cls-8" d="M1621.71,867.9H1441.15c.29-2,.57-4,.86-6.16h178.68C1621,863.67,1621.34,865.72,1621.71,867.9Z" transform="translate(798.33 79.92)"/><path class="cls-8" d="M1618.31,845.75H1443.77c.17-2,.33-4.06.45-6.15h173.47C1617.81,841.53,1618.06,843.54,1618.31,845.75Z" transform="translate(798.33 79.92)"/><path class="cls-8" d="M1617.08,817.45c0,2.18,0,4.23,0,6.16H1444.51c0-2.05-.12-4.15-.29-6.16Z" transform="translate(798.33 79.92)"/><path class="cls-8" d="M1617.2,801.42H1443.28c-.08-2-.16-4.1-.25-6.15h174.13v1.39C1617.16,798.34,1617.2,799.9,1617.2,801.42Z" transform="translate(798.33 79.92)"/><path class="cls-8" d="M1612.7,773.11a48.47,48.47,0,0,0,.74,6.15H1447.76c.08-2,.16-4.1.33-6.15Z" transform="translate(798.33 79.92)"/><path class="cls-8" d="M1662.57,773.11l-3.9,6-39.29-1.24c-.2-1.14-.37-2.74-.53-4.75Z" transform="translate(798.33 79.92)"/><path class="cls-8" d="M1612,751c0,2,0,4.06,0,6.15h-162.6c.21-2.09.45-4.14.74-6.15Z" transform="translate(798.33 79.92)"/><path class="cls-8" d="M1677,751l-4,6.15h-54.75c0-2,0-4.06-.08-6.15Z" transform="translate(798.33 79.92)"/><path class="cls-8" d="M1691.36,728.82l-4,6.15H1444.69a46.21,46.21,0,0,0-4.47-6.15Z" transform="translate(798.33 79.92)"/><path class="cls-8" d="M1674.83,712.82H1468.72a2.49,2.49,0,0,0,.78-.77,15.65,15.65,0,0,0,2.42-5.38h194.21Z" transform="translate(798.33 79.92)"/><path class="cls-8" d="M1490.82,668.53H1472c4.34-.94,9.31-1.72,14.68-2.33.94.57,1.85,1.11,2.58,1.51C1489.75,668,1490.29,668.25,1490.82,668.53Z" transform="translate(798.33 79.92)"/><path class="cls-8" d="M1498.53,690.68h-28.21q-1-3.13-2.34-6.15h25.59c.2.33.41.61.61.9.46.7,1,1.35,1.44,2s1.07,1.31,1.64,1.93a14.56,14.56,0,0,0,1.07,1.15Z" transform="translate(798.33 79.92)"/><path class="cls-8" d="M1519.24,690.68h-14.52a36.52,36.52,0,0,1-6.15-6.15H1508A29.73,29.73,0,0,0,1519.24,690.68Z" transform="translate(798.33 79.92)"/><path class="cls-8" d="M1643.5,690.68h-80.87a70.09,70.09,0,0,0,7.46-6.15h64.71Z" transform="translate(798.33 79.92)"/><path class="cls-8" d="M1465.27,707.16,1400.52,704h-.33a11.38,11.38,0,0,1-1.15-5c-.08-3,1.4-11.85,1.6-12.83a22,22,0,0,1,3.41-7.42c1.72-2.59,3-7.22-.25-14.64-1.35-3-3.32-6.07-3.44-9.48s1.92-6.48,3.6-9.31c2.42-4,5.17-8.49,4.23-13.82-.45-2.58-1.81-4.88-2.54-7.42a18.29,18.29,0,0,1-.25-8.2,24.26,24.26,0,0,1,5.9-12.47,3.14,3.14,0,0,0-1.88-5.25l-86.61-9.26-1.56-.17c-5.46,10.91-13.17,28.71-13.78,39.41a92.64,92.64,0,0,0,1.15,21.86c2.09,12.59,6.76,25,14.43,35.31l-18-1.36a3,3,0,0,0-3.24,3.33c-2.62-.21-5.29-.41-7.91-.66a3,3,0,0,0-2.67-3.73l-8.9-.66a21.42,21.42,0,0,1,5.66-14.64c2-2.13,4.39-4,5.62-6.76,2.58-5.79-1.07-11.36-.16-17.19,1.1-7,9.18-11.15,10.94-18.25,1.36-5.41-.53-10.37-2.37-15.17-1.27-3.4-2.5-6.64-2.46-9.8a98.27,98.27,0,0,1,2.46-13.74l-2.63-.29c1.81-14.84,8.29-27.55,18-35.26,10.82-8.53,26.08-10.3,26.2-10.3a3.22,3.22,0,0,0,2.22-1.31c3.19-4.59,15.09-9.23,31.65-9.23,20.3,0,39.82,7.14,53.48,19.61,34.28,31.29,27.76,46.5,22.47,58.72-3.44,8-7,16.36,2.38,26,8.24,8.41,5.58,15,2.5,22.6-1.43,3.56-2.91,7.13-3.07,10.9a14.2,14.2,0,0,0,1.19,6.69c.57,1.39,4.67,9.35,4.67,9.35C1464.49,692,1468.22,700.85,1465.27,707.16Z" transform="translate(798.33 79.92)"/><path class="cls-5" d="M1405.4,615.88a18.29,18.29,0,0,0,.25,8.2c.73,2.54,2.09,4.84,2.54,7.42.94,5.33-1.81,9.85-4.23,13.82-1.68,2.83-3.77,5.91-3.6,9.31s2.09,6.44,3.44,9.48c3.28,7.42,2,12,.25,14.64a22,22,0,0,0-3.41,7.42c-1.35,1.31-2.79,2.54-4.22,3.73L1399,699l1.48,5,1.07,3.69s-43.35,43.18-52.17,53.11c-2.25,2.5-7,.28-7-3.12,0-13.33,3.57-49.75,3.57-49.75l1.76-6.11c-17.67-5.9-30.47-23.13-35.92-44.2l0,0c-.7-2.51-1.19-5.05-1.64-7.63a93.21,93.21,0,0,1-1.15-21.2,80.28,80.28,0,0,1,13.78-39.86l86.61,9.26a3.14,3.14,0,0,1,1.88,5.25A24.26,24.26,0,0,0,1405.4,615.88Z" transform="translate(798.33 79.92)"/><path d="M1378,635.74h-.24a3.07,3.07,0,0,1-2.83-3.31l.38-4.86a3.07,3.07,0,1,1,6.13.48l-.38,4.86A3.07,3.07,0,0,1,1378,635.74Z" transform="translate(798.33 79.92)"/><path d="M1332.34,631.81h-.24a3.07,3.07,0,0,1-2.83-3.3l.31-4.09a3.15,3.15,0,0,1,3.31-2.83,3.08,3.08,0,0,1,2.83,3.3l-.32,4.09A3.07,3.07,0,0,1,1332.34,631.81Z" transform="translate(798.33 79.92)"/><path d="M1355.23,658.61a29.76,29.76,0,0,1-7.45-1.21,6.45,6.45,0,0,1-4.44-8.43l7.94-33.61a3.07,3.07,0,0,1,6,1.42l-8,33.81c0,.15,5.45,4.27,9.1,1a3,3,0,0,1,4.33.42,3.08,3.08,0,0,1-.43,4.33A10.81,10.81,0,0,1,1355.23,658.61Z" transform="translate(798.33 79.92)"/><path d="M1374.93,670.05c-3.61,8.65-9.47,13.08-17.27,13.08a27.64,27.64,0,0,1-9.26-1.76c-3.66-1.31-1.74-7.14,2-5.78,7,2.46,12,1.72,15.58-2.46a42.56,42.56,0,0,1-7,.57,44.13,44.13,0,0,1-13.45-2,25.78,25.78,0,0,1-7.71-4c-3.07-2.4.73-7.35,3.81-4.84a20,20,0,0,0,5.82,3c6.32,2.09,15.87,2.25,20.88.33,1.2-.55,2.61-1.66,4-1.48C1375,665.07,1375.86,667.82,1374.93,670.05Z" transform="translate(798.33 79.92)"/><path class="cls-9" d="M1336.48,652.14a13.21,13.21,0,0,1-24.65,5.5l0,0c-.68-2.51-1.2-5.05-1.64-7.66a13.21,13.21,0,0,1,26.32,2.2Z" transform="translate(798.33 79.92)"/><path class="cls-9" d="M1402.54,657.26a13.2,13.2,0,1,1-12.14-14.19A13.21,13.21,0,0,1,1402.54,657.26Z" transform="translate(798.33 79.92)"/><path d="M1328.43,613.57a3.07,3.07,0,0,1-.79-6,31.37,31.37,0,0,1,11.85-.84,3.08,3.08,0,1,1-.75,6.11,25.45,25.45,0,0,0-9.51.67A3.19,3.19,0,0,1,1328.43,613.57Z" transform="translate(798.33 79.92)"/><path d="M1387.61,617.36a3.08,3.08,0,0,1-1.25-.26,25,25,0,0,0-9.3-2.13,3.08,3.08,0,0,1,.11-6.15h.1a31.51,31.51,0,0,1,11.59,2.65,3.08,3.08,0,0,1-1.25,5.89Z" transform="translate(798.33 79.92)"/><path d="M1347.22,550.78a2,2,0,0,1-.75-3.95,42.53,42.53,0,0,1,15-3.19,1.94,1.94,0,0,1,2.08,2,2,2,0,0,1-2,2.08,38.51,38.51,0,0,0-13.54,2.9A2,2,0,0,1,1347.22,550.78Z" transform="translate(798.33 79.92)"/><path d="M1432.27,593.87a2,2,0,0,1-2-1.64c-1.57-7.64-4.52-13.13-9-16.79a2.05,2.05,0,0,1,2.59-3.18c5.26,4.28,8.67,10.54,10.44,19.15a2.06,2.06,0,0,1-1.6,2.42A2,2,0,0,1,1432.27,593.87Z" transform="translate(798.33 79.92)"/><path d="M1415,689.51l-.29,0a2,2,0,0,1-1.74-2.32,49.11,49.11,0,0,1,1.43-6.2,27.77,27.77,0,0,0,1.48-8.55c-.14-3.12-1.38-6.11-2.7-9.27a50.51,50.51,0,0,1-2.37-6.49,26.2,26.2,0,0,1,5.16-23.13,2.05,2.05,0,0,1,3.15,2.63,22,22,0,0,0-4.34,19.45,46.44,46.44,0,0,0,2.18,6c1.4,3.35,2.85,6.82,3,10.67a31.41,31.41,0,0,1-1.63,9.83,46.83,46.83,0,0,0-1.33,5.68A2,2,0,0,1,1415,689.51Z" transform="translate(798.33 79.92)"/><path class="cls-5" d="M1572.47,1202.43a91.94,91.94,0,0,1-45.19,13.9,20.75,20.75,0,0,0-3.24.29,76,76,0,0,0,8-14.56Z" transform="translate(798.33 79.92)"/><path class="cls-5" d="M1660.8,1216.74c-14.72,10.54-39.2,19-51.87,15.46a6.87,6.87,0,0,0-3.94.37,76.33,76.33,0,0,0,8.78-13.28l47-2.75Z" transform="translate(798.33 79.92)"/><path class="cls-11" d="M1752.79,1052.58,1658.1,1069l7,147.3-62.58,3.65-8.49-155c-.94.28-8.12,2.38-10.75,3.07l-4.3,134.47-63.93-.57,3.52-146.16.86-35.35c0-18.16,17.68-28.62,32.81-32.72L1637.39,974l3.15-.49,12.55-2,3.12-.53,12.55-2,3.16-.49,39-6.28c1.27,5.87,2.87,11.65,4.71,17.39a5.38,5.38,0,0,0,1.56,2.71,5.56,5.56,0,0,0,2.46.73c8,1,16,2,24,3,1.89.24,3.94.53,5.46,1.72,2.25,1.8,2.7,5,2.91,7.87A407.11,407.11,0,0,1,1752.79,1052.58Z" transform="translate(798.33 79.92)"/><path class="cls-4" d="M1530.75,998.26v203.65h-3.16V1001.17A34.16,34.16,0,0,1,1530.75,998.26Z" transform="translate(798.33 79.92)"/><path class="cls-4" d="M1546.42,989.53v212.38h-3.12V990.8C1544.33,990.35,1545.35,989.94,1546.42,989.53Z" transform="translate(798.33 79.92)"/><polygon class="cls-4" points="2360.45 1066 2360.45 1281.83 2357.29 1281.83 2357.29 1066.53 2360.45 1066"/><polygon class="cls-4" points="2376.12 1063.5 2376.12 1281.83 2373 1281.83 2373 1063.99 2376.12 1063.5"/><polygon class="cls-4" points="2391.82 1061 2391.82 1136.13 2388.67 1136.41 2388.67 1061.49 2391.82 1061"/><polygon class="cls-4" points="2407.49 1058.46 2407.49 1297.99 2404.33 1297.99 2404.33 1058.99 2407.49 1058.46"/><polygon class="cls-4" points="2423.15 1055.95 2423.15 1297.99 2420.04 1297.99 2420.04 1056.45 2423.15 1055.95"/><polygon class="cls-4" points="2438.86 1053.45 2438.86 1297.99 2435.7 1297.99 2435.7 1053.94 2438.86 1053.45"/><polygon class="cls-4" points="2454.53 1050.91 2454.53 1297.99 2451.41 1297.99 2451.41 1051.44 2454.53 1050.91"/><polygon class="cls-4" points="2470.23 1047.34 2470.23 1146.5 2467.07 1147.04 2467.07 1047.34 2470.23 1047.34"/><polygon class="cls-4" points="2485.9 1072.52 2485.9 1143.8 2482.78 1144.33 2482.78 1073.42 2485.9 1072.52"/><path class="cls-4" d="M1701.32,1006.94v54.54l-3.16.54v-56.51a18.78,18.78,0,0,0,2.87,1.35Z" transform="translate(798.33 79.92)"/><polygon class="cls-4" points="2515.31 1090.39 2515.31 1138.69 2512.19 1139.23 2512.19 1089.69 2515.31 1090.39"/><path class="cls-4" d="M1732.68,1016.18v39.91l-3.16.53v-42.81a23.66,23.66,0,0,1,3.12,2.33Z" transform="translate(798.33 79.92)"/><path class="cls-4" d="M1748.35,1029.18v24.2l-3.12.53v-25.63A11.63,11.63,0,0,0,1748.35,1029.18Z" transform="translate(798.33 79.92)"/><path class="cls-8" d="M1746.35,980.2c.7.5,1.43,1,2.21,1.44v3.61a21.27,21.27,0,0,0-3-1.73,21,21,0,0,0-8-2c-.37,0-17.63,0-17.63,0l-17-61s17.92-94.86,20.06-104.33c.86-3.82-5.17-5.21-6-1.35-2.14,9.47-5.66,27.55-9.52,47.81l-38.75-24.28,29-53.14,2.26-4.1a15,15,0,0,1,2.5-2c7.5-5.34,21.12-8.7,39.45-9.68,0,0,7-.29,8.32-.29-.32,2.54-1.8,6.36-1.18,9.92a10.48,10.48,0,0,0,3.69,6.16c5.16,4.83,16,9.55,29.77,9.55,5,0,18.49-1.31,26.82-11,1.39-1.68,2.75-3.32,4.14-5,.41-.49,3.73-7,3.94-7l7.09,1.35c.86.24,12.34,4,13,4.39,10.21,5.29,22.89,12.5,31.29,27.68,6.07,10.95,19.44,46.13,19.44,46.13l-56.76,16.36-13.2-26.61a3,3,0,0,0-4.1-1.39,3.07,3.07,0,0,0-1.4,4.1l18.91,38.26a3,3,0,0,0,2.75,1.68c.28,0,3.77-.9,3.77-.9l7.91,9.76c-12.71,1.06-42.44,4.39-59.62,13.24-5.79.41-18.21,6.2-21.41,8.2-3.81,2.51-13.33,7.55-18.33,7.39-2-.09-4.43.08-6,2-1.72,2.09-1.31,4.88-.74,7.38.82,3.48,8.78,7.26,11.57,7.5a36.3,36.3,0,0,0,5.29,0c-5.7,9.48-14.44,27.15-13.45,36.17A7.94,7.94,0,0,0,1746.35,980.2Z" transform="translate(798.33 79.92)"/><polygon class="cls-3" points="2631.74 951.37 2688.25 935.09 2690.87 941.28 2634.48 956.94 2631.74 951.37"/><path class="cls-9" d="M1746.06,715.34A13.06,13.06,0,0,1,1733.63,729a9.4,9.4,0,0,1-2.06-.09,80.29,80.29,0,0,1-5.9-23.69,12.65,12.65,0,0,1,6.76-2.29A13,13,0,0,1,1746.06,715.34Z" transform="translate(798.33 79.92)"/><path d="M1761.63,720.87a25.32,25.32,0,0,1-8.56-1.82,6.27,6.27,0,0,1-3.9-7l5.17-27.28a3.08,3.08,0,1,1,6.05,1.15l-5.17,27.28c4.4,1.8,7.75,1.83,8.7,1a3.08,3.08,0,1,1,4,4.65A9.38,9.38,0,0,1,1761.63,720.87Z" transform="translate(798.33 79.92)"/><path d="M1769,741.1a21.51,21.51,0,0,1-4.24-.44c-5.2-1.07-11.25-4.41-12.25-9.22a3.08,3.08,0,1,1,6-1.25c.22,1.06,3,3.52,7.45,4.44,2.34.48,8.13,1,11.58-3.89a3.07,3.07,0,1,1,5,3.51A16.13,16.13,0,0,1,1769,741.1Z" transform="translate(798.33 79.92)"/><path d="M1743.43,697.17a3.08,3.08,0,0,1-3.07-2.94l-.21-4.73a3.06,3.06,0,0,1,2.93-3.21,3,3,0,0,1,3.21,2.93l.22,4.73a3.08,3.08,0,0,1-2.93,3.22Z" transform="translate(798.33 79.92)"/><path d="M1783,697.3a3.06,3.06,0,0,1-3.06-2.93l-.22-4.74a3.06,3.06,0,0,1,2.93-3.21,3,3,0,0,1,3.21,2.93l.22,4.74a3.07,3.07,0,0,1-2.93,3.21Z" transform="translate(798.33 79.92)"/><path class="cls-9" d="M1805.05,716a13,13,0,1,1-13.62-12.43A13,13,0,0,1,1805.05,716Z" transform="translate(798.33 79.92)"/><path class="cls-2" d="M1726.7,663.61c0,.21-1.39,5.79-1.88,8.53-1.23,6.93-2.67,13.91-2.67,21-4.75-2.5-8.73-7.14-6.56-25.43.49-4.3,2.54-13.69,2.67-13.94A40.26,40.26,0,0,0,1726.7,663.61Z" transform="translate(798.33 79.92)"/><path class="cls-2" d="M1868.35,676.78c-.62,13.16-2.46,24.73-11.81,34.69a37.31,37.31,0,0,1-13,9.35c-1.52.62-5.46,2-6.81-2.91-.49-1.93-.74-6.07.58-7.79,2.79-3.57,5.7-7.38,7-11.81,1.06-3.73,2.25-7.55.37-11.36-1.6-3.2-4.72-5.05-8.08-6-4.88-1.35-10,1-13.7,4.14-1.47,1.27-2.62,4.39-5,3.49-2.71-1.07-3.32-5.54-2.75-7.88.94-3.93,2.13-7.79,3.32-11.48,1.23-4,2.5-8.12,3.53-12.46a58.21,58.21,0,0,0,6.52-4.56c3.08-2.54-.74-7.26-3.86-4.75-12.42,10.08-29.52,14-45,16.28-1.93.28-3.94.61-6,.94-12.18,2-26,4.22-36.66-1.39-8.86-4.43-17.76-16.37-17.92-26.54a14.31,14.31,0,0,1,.82-5.66c2-4.92,8.12-16.4,21.44-17.14,2.75-.2,6.81,1.72,8.13,2.46a3,3,0,0,0,2.83.12c.08,0,9.47-4.42,25.09-8,10.34-2.38,21.86-1.64,29.73-.54,12.84,1.73,28,10.46,32.2,23.71a3.1,3.1,0,0,0,2.46,2.13C1861.13,637.29,1869.13,659.47,1868.35,676.78Z" transform="translate(798.33 79.92)"/><path d="M1825.29,704.1a1.91,1.91,0,0,1-.48-.06,2,2,0,0,1-1.51-2.47c1.08-4.43,6.73-7.75,7.37-8.11a2,2,0,1,1,2,3.56c-1.83,1.05-4.92,3.47-5.42,5.52A2.06,2.06,0,0,1,1825.29,704.1Z" transform="translate(798.33 79.92)"/><path d="M1758,640.6a19.84,19.84,0,0,1-5.94-.82,2,2,0,1,1,1.23-3.91c3.35,1.06,8,.8,13.81-.72a2,2,0,0,1,1,4A40,40,0,0,1,1758,640.6Z" transform="translate(798.33 79.92)"/><path d="M1784.08,656.71a2.05,2.05,0,0,1-.56-4,152.57,152.57,0,0,0,23.83-9.52,2,2,0,1,1,1.78,3.69,156.68,156.68,0,0,1-24.49,9.77A1.77,1.77,0,0,1,1784.08,656.71Z" transform="translate(798.33 79.92)"/><path d="M1764.53,659.68a54.59,54.59,0,0,1-19-3.3c-2.75-1-15.09-8-17.66-14.06a2.05,2.05,0,0,1,3.78-1.6c1.81,4.25,12.36,10.72,15.32,11.82a51.46,51.46,0,0,0,21.59,2.89q2.79-.21,5.54-.64a2.07,2.07,0,0,1,2.35,1.71,2,2,0,0,1-1.71,2.34c-2,.31-3.92.54-5.89.68C1767.4,659.63,1766,659.68,1764.53,659.68Z" transform="translate(798.33 79.92)"/><path d="M1790.46,683.81a3.15,3.15,0,0,1-1.22-.26c-2-.86-8-3-11.51-2.69a3.08,3.08,0,0,1-.57-6.13c5.86-.55,13.66,2.8,14.54,3.18a3.08,3.08,0,0,1-1.24,5.9Z" transform="translate(798.33 79.92)"/><path d="M1737.41,685.3a3.07,3.07,0,0,1-1.24-5.89c1.2-.53,7.41-3.12,11.87-2a3.07,3.07,0,1,1-1.43,6c-1.82-.43-5.76.72-8,1.69A3.07,3.07,0,0,1,1737.41,685.3Z" transform="translate(798.33 79.92)"/><path class="cls-5" d="M1673.23,850l-11.52,59.41a28.55,28.55,0,0,0,2.07,17.31l25.61,68.61a19.65,19.65,0,0,0,11.66,11.58l28.91,6.56,10.3,9.86a8.37,8.37,0,0,0,11.55,5l3.11-1.47a6.22,6.22,0,0,0,3.12-7.91l-3.62-19.43a18.19,18.19,0,0,0-17.88-14.85H1717.7l-17.8-63.89,9.44-50.88Z" transform="translate(798.33 79.92)"/><path class="cls-2" d="M2014.91,972.86a60.54,60.54,0,0,1-37.93,56.39h-39.57a3.08,3.08,0,1,0,0,6.15h37.19v273H1842.35v-273h82.39a3.08,3.08,0,0,0,0-6.15H1851.9a67,67,0,0,0,17-97l32.19-1.68a22.25,22.25,0,0,0,17.56-12.83,20.79,20.79,0,0,0,1.72-5.75H1954a61,61,0,0,1,14.68,1.81,59.17,59.17,0,0,1,6.52,2A61.08,61.08,0,0,1,2014.91,972.86Z" transform="translate(798.33 79.92)"/><path class="cls-4" d="M1751.64,972.88v338.54h87.64V1032.31a64,64,0,1,0-87.6-61C1751.64,971.8,1751.64,972.34,1751.64,972.88Z" transform="translate(798.33 79.92)"/><path class="cls-9" d="M1494.8,596.9a13.67,13.67,0,0,1-13,14.27,9.61,9.61,0,0,1-2.15-.1,83.6,83.6,0,0,1-6.18-24.8,13.23,13.23,0,0,1,7.08-2.4A13.65,13.65,0,0,1,1494.8,596.9Z" transform="translate(798.33 79.92)"/><path d="M1511.59,600a24.51,24.51,0,0,1-8.62-1.92,6.32,6.32,0,0,1-3.89-6.87l4.53-26.32a3.07,3.07,0,1,1,6.06,1l-4.52,26.31c4.16,1.74,7.51,1.93,8.38,1.17a3.08,3.08,0,0,1,4,4.67A9,9,0,0,1,1511.59,600Z" transform="translate(798.33 79.92)"/><path d="M1492.05,577.72a3.06,3.06,0,0,1-3.07-2.93l-.22-5a3.07,3.07,0,0,1,2.93-3.21,3,3,0,0,1,3.21,2.93l.22,5a3.07,3.07,0,0,1-2.93,3.21Z" transform="translate(798.33 79.92)"/><path d="M1533.45,577.86a3.08,3.08,0,0,1-3.07-2.94l-.22-5a3.07,3.07,0,1,1,6.14-.28l.23,5a3.08,3.08,0,0,1-2.94,3.21Z" transform="translate(798.33 79.92)"/><path class="cls-9" d="M1556.59,597.6a13.66,13.66,0,1,1-14.28-13A13.68,13.68,0,0,1,1556.59,597.6Z" transform="translate(798.33 79.92)"/><path d="M1541.26,563.45c-.39.07-8.87-3.22-13.31-2.81a3.11,3.11,0,0,1-3.34-2.79,3.07,3.07,0,0,1,2.78-3.34c6-.56,14.22,2.91,15.15,3.32C1546,559.32,1544.08,563,1541.26,563.45Z" transform="translate(798.33 79.92)"/><path d="M1485.75,565.29a3.07,3.07,0,0,1-1.24-5.89c1.24-.55,7.69-3.23,12.33-2.13a3.07,3.07,0,1,1-1.42,6C1493.45,562.78,1486.16,565.29,1485.75,565.29Z" transform="translate(798.33 79.92)"/><path class="cls-3" d="M1621.56,545.71c-2,1.93-4.59,3.61-9.15,6.56-3.27,2.13-6.81-2.91-3.44-5.12,6.23-4.06,8.2-5.33,10.25-7.92,1.27-9.8.82-14.19-10.87-27.06-3-3.32-9-4.8-13.74-5.37-3.73-.37-14.35,1.72-14.55,1.72-3.57,0-4.14-5.25-.7-6.07,2.21-.53,4-.9,5.49-1.19-.43-1.84-.48-3.75-1-5.58-2.67-9.64-11.24-10.5-22.14-10.58,0,0-4.43,0-6.36-1.06-1.64-1-3.82-3.94-3.82-3.94a22.17,22.17,0,0,0-16.85-8.82,22.68,22.68,0,0,0-14.07,3.94,75.7,75.7,0,0,0-5.28,5.45,26.36,26.36,0,0,0-5,13.7c-.29,3.94-6.4,3.57-6.15-.37a32.12,32.12,0,0,1,3.07-11.6s-4.67-1.6-5.2-1.81c-9-3.65-19.69-1.48-26,5.33-6.69,7.3-7.75,19.89-2.38,27.52a3.12,3.12,0,0,1-2.46,4.88,10.86,10.86,0,0,0-8.08,4.35,7.77,7.77,0,0,0-1.6,6.72c1.56,6.11,6.52,12.55,12.06,12.8,12.22.45,28.46-6,37.56-15.14a3.09,3.09,0,0,1,5.09,1.15,21.28,21.28,0,0,0,13.53,13c5.58,1.77,12.14,1.32,18.5-1.27,5.94-3.28,13.4-8.32,16.36-12.71,2.22-3.3,7.28.15,5.08,3.49-.37.57-1.56,2.33-1.56,2.33-1.23,6.56-.78,16.16.82,18.74,7.63,12.47,15.46,10.5,17.35,10.42a16.56,16.56,0,0,1,4.88-3.28c3.24-1.48,8.94-1.27,13.2,2,2.34,1.84,6.07,6.11,4.76,14.35-.81,5.12-4.73,8.84-8,12.55-3.61,4.1-11.82,10.58-12.39,11.11-.31,9.11,7.75,20,7.92,20.18,3.73-.7,14.76-4.43,23.74-25.22C1630.74,570.11,1625,552.77,1621.56,545.71ZM1583.35,600c.12-2.57-1.45-3.44-3.29-2.16-5.66,14.88-16.08,22.35-31,22.35-8.32,0-17.88-2.22-29.28-6.81-4.63-1.85-10.21-4-15.58-4.1-5.62-.08-7.81,2.66-12,2.66-7.22,0-13.33-6.56-17.31-12.26-1.23,11.57-2.18,24.94-2.18,28.71,0,13.49,4.11,22.72,13.29,29.93,7.63,5.95,22.68,11.94,39.08,11.94a60.78,60.78,0,0,0,9.52-.7c32.85-5,52.94-15.21,55.4-49.78C1586.82,614,1583.12,604.88,1583.35,600Zm-22.12-61.13.33.57c0-.29,0-.53,0-.82A2.19,2.19,0,0,1,1561.23,538.91Z" transform="translate(798.33 79.92)"/><path class="cls-9" d="M1511,626.82a18.82,18.82,0,0,1-7.12-1.41c-4.37-1.82-7.16-5-7.1-8.13a2.05,2.05,0,0,1,2-2h0a2.05,2.05,0,0,1,2,2.09c0,1.15,1.68,3.06,4.57,4.26a13.43,13.43,0,0,0,15.06-3,2.05,2.05,0,0,1,3,2.85A17,17,0,0,1,1511,626.82Z" transform="translate(798.33 79.92)"/><path d="M1535.69,515.05a2.09,2.09,0,0,1-.55-.08,2,2,0,0,1-1.41-2.53,21.81,21.81,0,0,1,33.76-11.69,2.05,2.05,0,1,1-2.4,3.33,17.7,17.7,0,0,0-27.42,9.48A2.06,2.06,0,0,1,1535.69,515.05Z" transform="translate(798.33 79.92)"/><path d="M1583.37,585.24a2.05,2.05,0,0,1,0-4.1c1.05-.17,4.43-3.07,7.11-6.12a2.05,2.05,0,1,1,3.08,2.72C1591.05,580.54,1586.44,585.24,1583.37,585.24Z" transform="translate(798.33 79.92)"/><path d="M1367.56,826.78a41.4,41.4,0,0,1-19.6-4.42,2.05,2.05,0,0,1,1.77-3.7,41.27,41.27,0,0,0,7.31,2.78c7.86,2.1,16.6,1.07,24.3.16a2,2,0,1,1,.48,4.07A121.79,121.79,0,0,1,1367.56,826.78Z" transform="translate(798.33 79.92)"/><path class="cls-5" d="M1214.91,950.72c-.16,5.18,7,8,13,9.39,13.07,3,26.72,5.16,40.12,3.47,7.06-.89,31.48-1.46,36.68-1.68s10.86-2.37,12.38-6.53c-7.7-6.13-11.26-15.76-15.11-24-16.45,3.81-36.56,4-53.32,6.73A88.92,88.92,0,0,0,1214.91,950.72Z" transform="translate(798.33 79.92)"/><path class="cls-8" d="M782.91,1209.19a76.09,76.09,0,0,1,10.66-.75,168.92,168.92,0,0,0,31.08-3.19,2.57,2.57,0,0,1,2.81,1.22c1.92,3.7,5.7,6.31,9.63,7.89a32.41,32.41,0,0,0,30.54-3.75c1.33-1,5.56-4.88,7.19-5.09,1.11-.14,13.22,4.5,18.79,6-1.22,7-1.55,18.43-3.31,25.29-.52,2-3.4,12.54-5,17a2.41,2.41,0,0,1-2.55,1.56c-8.79-1-98.42-18.27-115.3-22.81a2.9,2.9,0,0,1-2-3.57l2.21-8.27a17.22,17.22,0,0,1,2.72-6.47C773.23,1210.61,778.79,1209.8,782.91,1209.19Z" transform="translate(798.33 79.92)"/><path class="cls-8" d="M939.06,1275.27a75.7,75.7,0,0,1,8.68-6.21,168.83,168.83,0,0,0,24.81-19,2.59,2.59,0,0,1,3-.43c3.57,2.15,8.15,2.39,12.33,1.68a32.44,32.44,0,0,0,24.05-19.19c.63-1.51,23.24-3.24,23.24-3.24,2.62,8.38,7.72,7.82,9.81,13.7.7,2,3.67,12.47,4.61,17.15a2.41,2.41,0,0,1-1.35,2.67c-8,3.76-93.42,36-110.18,40.95a2.9,2.9,0,0,1-3.6-2l-2.45-8.21a17.06,17.06,0,0,1-1.07-6.94C931.56,1281.55,935.87,1278,939.06,1275.27Z" transform="translate(798.33 79.92)"/><path class="cls-8" d="M1677.53,1258.61c-.45,1.44-2.09,2.18-3.56,2.75l-12.31,4.68c-33.87,12.91-67.78,25.83-102.31,37-1.32.4-2.79.81-3.9.08a4,4,0,0,1-1.06-1.15c-1.69-2.3-10.09-19.69-7.92-25.88,2.54-7.3,10-11.64,16.89-15.46,5.83-3.28,11.57-6.64,17.15-10.29-.86.33-1.68.61-2.55.94-33.21,12.22-66.47,24.48-100.3,34.9-1.27.41-2.71.74-3.82,0a4.53,4.53,0,0,1-1-1.15c-5.29-7.75-10.42-17.26-7.22-26.08,2.63-7.22,10-11.4,16.73-15.09,12.39-6.81,24.57-14.15,35.19-23.46a15.39,15.39,0,0,1,4.84-3.36,16.06,16.06,0,0,1,4.88-.66,92.13,92.13,0,0,0,49.91-17.06c5.28,13.82,16,41.79,16.07,41.92q3-2.28,5.78-4.8a17,17,0,0,1,4.88-3.45c1.6-.57,3.37-1.19,5-.74,12.79,3.61,37.56-5,52.24-15.7,4.92,11.77,15,36.82,15.83,38.75A4.88,4.88,0,0,1,1677.53,1258.61Z" transform="translate(798.33 79.92)"/><path class="cls-12" d="M1154.47,1322.05l-1.52-1.55h-17.59v-10.87h6.84l-1.55-1.56-1.52-1.56h-3.77v-3.81l-1.6-1.6-1.56-1.6v7h-10.83v-10.82h7.05l-1.59-1.6-1.52-1.56h-3.94v-4l-1.56-1.56-1.6-1.64v7.18h-10.82v-8h-3.16v8H1093.4v-8h-3.11v8h-10.87v-5.74h-3.12v5.74h-10.82V1281.7h-3.16v10.83h-10.83V1280.1h-3.16v12.43h-10.82V1281.7h-3.16v10.83h-10.83v-8H1022v4.59c-.54.21-1.07.41-1.6.66v2.79h-14v14h-7c-.25.49-.53,1-.78,1.56s-.49,1-.73,1.56h8.48v10.87h-11.6c-.08.49-.13,1-.21,1.55s-.08,1-.12,1.56h11.93v3.16h3.12v-3.16h10.83v3.16h3.15v-3.16h10.83v3.16h3.16v-3.16h10.82v4.68h3.16v-4.68h10.83v4.68h3.16v-4.68h10.82v4.68h3.12v-4.68h10.87v4.68h3.11v-4.68h10.83v4.68h3.16v-4.68h10.82v4.68h3.16v-4.68h10.83v4.68h3.16v-4.68H1156Zm-134.1-1.55h-10.83v-10.87h10.83Zm0-14h-10.83v-10.82h10.83Zm14,14h-10.83v-10.87h10.83Zm0-14h-10.83v-10.82h10.83Zm14,14h-10.82v-10.87h10.82Zm0-14h-10.82v-10.82h10.82Zm14,14h-10.83v-10.87h10.83Zm0-14h-10.83v-10.82h10.83Zm14,14h-10.82v-10.87h10.82Zm0-14h-10.82v-10.82h10.82Zm14,14h-10.87v-10.87h10.87Zm0-14h-10.87v-10.82h10.87Zm13.94,14H1093.4v-10.87h10.83Zm0-14H1093.4v-10.82h10.83Zm14,14h-10.82v-10.87h10.82Zm0-14h-10.82v-10.82h10.82Zm14,14h-10.83v-10.87h10.83Z" transform="translate(798.33 79.92)"/><path class="cls-5" d="M1910.35,922.1a18.34,18.34,0,0,1-7.43,3c-22.39,4.06-45.48,1.93-68.16,4.14a67.21,67.21,0,0,0-15.33,3c-1.56.54-3,1.15-4.6,1.68-7,15-26.28,40.19-26.28,40.19-7.35,11.85-29.61,11.44-40.4,3.61-7.09-5.66,10.13-37.23,14.89-43,0,0-7.88.86-11.16.58-2.37-.21-8.44-3.65-8.81-5.17-1.11-4.59,0-5.7,3.65-5.58,6.68.29,17.88-6.35,20.13-7.87,3.28-2.09,16.2-7.92,20.51-7.75l2.37,1.27a13.06,13.06,0,0,1,5.91-2.09c3.77-.58,7-3,10.66-3.9,14.73-3.77,29.53-7.26,44.42-10.37-4-5.38-7.92-10.75-11.9-16.12a449.66,449.66,0,0,0,49.54-12.3c3.34-1,5.18.15,6.89,3.24q7.32,13.1,14.6,26.24c2.46,4.43,5,9,5.7,14C1916.43,914.78,1914.3,919.28,1910.35,922.1Z" transform="translate(798.33 79.92)"/><rect class="cls-6" x="1559.46" y="507.09" width="34.4" height="173.71"/><rect class="cls-3" x="1593.86" y="496.84" width="34.4" height="183.96"/><rect class="cls-3" x="1628.26" y="496.84" width="17.2" height="183.96"/><rect class="cls-3" x="1645.45" y="496.84" width="24.06" height="183.96"/><rect class="cls-8" x="909.34" y="420.08" width="21.94" height="183.96" transform="translate(670.86 485.51) rotate(-23.29)"/><polygon class="cls-3" points="1490.92 597.57 1401.43 620.66 1401.43 614.92 1468.57 597.57 1490.92 597.57"/><polygon class="cls-3" points="1505.35 605.4 1505.35 611.18 1401.43 638.04 1401.43 632.26 1505.35 605.4"/><polygon class="cls-3" points="1505.35 622.79 1505.35 628.57 1401.43 655.43 1401.43 649.65 1505.35 622.79"/><path class="cls-3" d="M707,560.26V566L604.87,592.45a16.88,16.88,0,0,1-1.64-5.33Z" transform="translate(798.33 79.92)"/><path class="cls-3" d="M707,577.61v5.78L639,601H618.65c-.53,0-1.06,0-1.6-.08Z" transform="translate(798.33 79.92)"/><path class="cls-8" d="M667.73,1292.86V1131.61h25c0,.65,0,125.77,0,125.77C692.79,1274.85,682,1289.49,667.73,1292.86Z" transform="translate(798.33 79.92)"/><rect class="cls-3" x="1431.69" y="1201.07" width="28.21" height="172.44"/><rect class="cls-11" x="1414.47" y="1201.07" width="11.07" height="172.44"/><polygon class="cls-6" points="1335.24 1368.59 1390.48 1199.59 1407.54 1205.17 1352.26 1374.17 1335.24 1368.59"/><rect class="cls-8" x="439.06" y="1202.12" width="177.79" height="15.76" transform="translate(10.89 1177.8) rotate(-61.56)"/><rect class="cls-6" x="1102.9" y="795.05" width="445.3" height="291.75"/><path class="cls-13" d="M620.24,828.88V938.37a4.91,4.91,0,0,1-4.88,5H543.23v124.29h51.14v12.72H450.83v-12.72H502V943.34H429.84a5,5,0,0,1-4.88-5V828.88a4.9,4.9,0,0,1,4.84-5H615.36A4.9,4.9,0,0,1,620.24,828.88Z" transform="translate(798.33 79.92)"/><path class="cls-14" d="M742.28,1125.09v142.14c0,24.89-17.88,45.1-40,45.1H679.62c19.52-1.88,34.82-21.32,34.82-44.94V1125.13c0-24.89-17-45.11-37.93-45.11l25.79,0C724.4,1080,742.28,1100.19,742.28,1125.09Z" transform="translate(798.33 79.92)"/><path class="cls-15" d="M356.19,1125.37v141.9a51.82,51.82,0,0,0,7.05,26.32h-7c-17.31,0-31.38-16.24-31.38-36.21V1133.62c0-20,14.07-36.21,31.38-36.21h8A51.87,51.87,0,0,0,356.19,1125.37Z" transform="translate(798.33 79.92)"/><path class="cls-3" d="M676.53,1080H340.79c-20.92,0-37.89,20.2-37.89,45.11v142.23c0,24.92,17,45.11,37.89,45.11H676.53c20.92,0,37.92-20.19,37.92-45.11V1125.14C714.45,1100.23,697.45,1080,676.53,1080Zm19.35,178c0,21.68-15.43,39.27-34.45,39.27H356.22c-19,0-34.45-17.59-34.45-39.27V1134.26c0-21.68,15.42-39.26,34.45-39.26H661.43c19,0,34.45,17.58,34.45,39.26Z" transform="translate(798.33 79.92)"/><path d="M1007.41,597.79H961.56l6.4-2.74A3.14,3.14,0,0,0,969.6,591L896.85,422a3,3,0,0,0-1.68-1.64,2.89,2.89,0,0,0-2.34,0l-18.58,8V416.9a3.06,3.06,0,0,0-3.07-3.07H795.51a3.09,3.09,0,0,0-3.07,3.07v7.18H761.15a3.07,3.07,0,0,0-3.08,3.08V597.79H705.25a19,19,0,0,0,4.84-12.67v-67.5a3.09,3.09,0,0,0-3.07-3.07H677.65c7.47-8.94,15.51-23,23.91-42,19.36-43.8,26.66-108,26.74-108.63A3.06,3.06,0,0,0,723,361.5c-.29.29-24.73,28.05-44.78,60.32a3.07,3.07,0,1,0,5.21,3.24,500.86,500.86,0,0,1,37.4-51.5c-2.87,19.81-10.5,64-24.86,96.45-10.66,24.15-19.15,36.95-25.58,43.55-.13.33-.25.66-.37,1l-.5,1.23h-1.43c.45-.37.86-.78,1.35-1.23.29-.29.62-.62,1-1,3.15-8.81,5.16-21.77,6-38.75a222.66,222.66,0,0,0-1.6-35.8,405.27,405.27,0,0,0-9.43-51.39,3,3,0,0,0-2.83-2.29,2.89,2.89,0,0,0-3,2c-.33.86-4.06,11.11-8.16,25.59.61,1.76,1.19,3.56,1.76,5.33-1,3.61-2,7.42-2.91,11.36-.58-1.93-1.15-3.9-1.77-5.83-3.85,15.14-7.42,32.93-8.2,49.22q-1.29,27.24,2.71,41a7.41,7.41,0,0,0,.7.58,11.09,11.09,0,0,0,2,1.23h-2a8.45,8.45,0,0,1-.41-1.23,2.47,2.47,0,0,1-.2-.58c-6.15-5.29-14.85-20-23-59.3-7.87-38.18-5.74-87.39-4.26-108.55,7.75,15,22.92,46.26,32.72,77.67,1-3.81,2-7.46,2.92-10.86-14-40.85-34.94-78.58-35.19-79.07a3.07,3.07,0,0,0-5.74,1.19c-.08.7-6.93,70.13,3.53,120.89,5.94,28.79,13,48.4,21.16,58.61H603.1a3.1,3.1,0,0,0-3.08,3.07v67.5a19,19,0,0,0,4.84,12.67H551.63a3.08,3.08,0,0,0,0,6.16h455.78a3.08,3.08,0,0,0,0-6.16ZM646.28,473.29a233.48,233.48,0,0,1,5.54-37.4q1.41-6.33,2.95-12.18c2.5-9.6,5.05-18,7.05-24.15,2,9.14,4.8,23.41,6.69,38.87.41,3.69.82,7.43,1.11,11.2a196.61,196.61,0,0,1,.61,24.85c-1,22-3.89,33.83-6.85,40.07H649.56c-1.47-4-2.62-9.85-3.2-17.88A198.6,198.6,0,0,1,646.28,473.29Zm57.66,111.83a12.65,12.65,0,0,1-10.87,12.67,9.51,9.51,0,0,1-1.6.13H618.64a8.88,8.88,0,0,1-1.56-.13,12.68,12.68,0,0,1-10.9-12.67V520.7h97.76Zm88.5,12.67H764.22V430.23h28.22Zm34.41,0H798.59V420h28.26Zm17.22,0H833V420h11.07Zm24,0H850.22V420H868.1Zm6.15,0V440.57l67.67,157.22Zm3.65-164.28,14.52-6.23,70.29,163.34-14.48,6.23Z" transform="translate(798.33 79.92)"/><path class="cls-11" d="M1442.64,1338.83H1276.79a72.9,72.9,0,0,1,.62-18.38l-116.67-31.57c-15.38-4.35-25.75-7-25.75-7s6.6-44.21,35.35-31.54c18.78,8.28,64.91-1.4,64.91-1.4a5.5,5.5,0,0,1,.78.29c2.75,1.23,12.67,6.69,25.88,25.1,5.21,7.3,30.59,8,37.65-5.33l.24-1.39c1.64,1.43,3,3.64,3.77,7.13,1.93,8,1.44,16.65,0,24.48,20.63,2.38,61.4-18.41,61.4-18.41l.69.08c2.83.41,13.9,2.95,31.7,17.51,6.93,5.66,31.58-.28,34.94-15l-.12-1.43c2,.94,3.81,2.75,5.53,5.91C1449,1308.48,1442.64,1338.83,1442.64,1338.83Z" transform="translate(798.33 79.92)"/><path class="cls-5" d="M1302.55,1252.42l-3,16.61c-7.06,13.33-32.44,12.63-37.65,5.33-15.54-21.65-26.49-25.39-26.66-25.39l7.79-12.38Z" transform="translate(798.33 79.92)"/><path d="M2036.86,1308.36h-56.11v-274a67.07,67.07,0,0,0-3.4-124.38c-1.56-.58-3.16-1.11-4.76-1.56l12.18-79.77a43.09,43.09,0,0,0-42.56-49.53h-44a.21.21,0,0,1-.08.16c-1.23-.12.08-.16.08-.16a10.09,10.09,0,0,0-2.46-13l-8.69-7.75a43.13,43.13,0,0,0-37-10l-26.49,5.33-5.21-.9a11.7,11.7,0,0,0,1.39-1.07,87.65,87.65,0,0,0,19.44-22.64c.17-.24.33-.53.49-.77,3.65-.58,12.31-3,21.37-12.64a45.3,45.3,0,0,0,11.11-19.11c1.77-6.47,2.14-13.24,2.38-19.93a58.51,58.51,0,0,0-1-14.88c-2.18-9.52-6.73-19.07-14.19-25.43-8.9-7.58-14.72-8.2-14.72-8.2-5.62-14.72-22.4-24.32-36.63-26.24-8.36-1.15-20.7-2-31.94.65a152.78,152.78,0,0,0-24.89,7.83c-2.18-1.06-6.36-2.79-10.09-2.54-16.86.9-24.36,15-26.82,21a20.16,20.16,0,0,0-1.27,8.16,32.35,32.35,0,0,0,1.55,8.94c-.2.73-2.25,6.15-2.46,7a110,110,0,0,0-2.58,14.07c-2.58,21.77,2.71,28.58,12.71,32.93,0,0,.5,3.65.5,4.67a40.87,40.87,0,0,0,.94,8.08,81.08,81.08,0,0,0,8.94,25.06l-35.6-6.28,1.4-2.09a3.12,3.12,0,0,0-.82-4.22L1631,678.05c-12.72-11.11-32.89-15.26-54-17.18,9.92-7.63,16.45-18.79,18.62-35.48,2.58-.08,18.7-1.8,30.51-29.07,13.16-30.39,2.21-51.63-.78-56.55,1.44-11.44.45-17.51-12.43-31.7-5.82-6.44-17.05-7.55-22-7.71-.16-.74-.24-1.56-.36-2.42-.21-1.31-.42-2.63-.74-3.94-4.15-14.8-18.5-15-28.09-15.05a17.35,17.35,0,0,1-3.33-.25,17,17,0,0,1-1.88-2.29A28.42,28.42,0,0,0,1535,465.13a27.87,27.87,0,0,0-22.19,8.78l-3,3-5.54-2c-11.52-4.67-24.68-1.93-32.76,6.89a29.87,29.87,0,0,0-5.13,31.21,17.52,17.52,0,0,0-8.16,5.94,13.93,13.93,0,0,0-2.71,12.06c2.22,8.33,9,17,17.76,17.31,0,0-2.34,14.1-2.62,16.2a96.44,96.44,0,0,0-.29,22.06,30.16,30.16,0,0,1-.49,3.32c-1.81,12.92-3.33,33.46-3.33,38.55,0,12.26,3.16,21.77,9.93,29.36a44,44,0,0,0-14,5.7c.46-1.27,1-2.58,1.56-4,3.2-8,7.22-17.92-3.81-29.19-6.52-6.69-4.47-11.45-1.11-19.28,5.74-13.29,13.53-31.45-24-65.7-20.26-18.45-44.78-21.2-57.62-21.2-16.07,0-30.14,4.27-35.84,10.75-4.22.61-17.63,3.2-28,11.4-11.73,9.27-19.27,24.81-20.67,42.61a3.07,3.07,0,0,0,2.46,3.24,20.22,20.22,0,0,0-2,8.2c-.08,4.3,1.44,8.24,2.87,12,1.56,4.1,3,8,2.14,11.53-1.85,7.26-9.84,11-11,18.78-.74,4.88,2.7,11,.61,15.58-.94,2.05-2.91,3.49-4.43,5.09a27,27,0,0,0-7.13,22.14,3,3,0,0,0,2.79,2.67l11.56.86h.25c3.81,0,4-5.78.2-6.15l-8.9-.66a21.42,21.42,0,0,1,5.66-14.64c2-2.13,4.39-4,5.62-6.76,2.58-5.79-1.07-11.36-.16-17.19,1.1-7,9.18-11.15,10.94-18.25,1.36-5.41-.53-10.37-2.37-15.17-1.27-3.4-2.5-6.64-2.46-9.8a15.52,15.52,0,0,1,2.38-7.55l15,1.64a82.7,82.7,0,0,0-9.56,33.63,92.64,92.64,0,0,0,1.15,21.86c2.09,12.59,6.76,25,14.43,35.31l-18-1.36c-3.94-.28-4.47,5.83-.49,6.12l24.11,1.84c4.55,4.63,7.38,7.05,15.3,10.74-7.67,2-23.79,6.07-27.64,7.06-12.76,3.28-25.59,7.95-28.58,24.28-.5,2.74-1.32,6.56-2.26,10.82l-47.86,8.41-26.49-5.33a43.13,43.13,0,0,0-37,10.05l-8.69,7.75a10.39,10.39,0,0,0-3.24,5.29c-.86-3.65-1.77-7.88-2.5-11.82a93.39,93.39,0,0,0,20.58-21.81c12.47-8.45,22-18.78,28-30.06l38.88-.08a3,3,0,0,0,3-2.38c2-9.11,3.81-19.52-1.88-27.56-2.1-2.95-5.62-5.33-6.85-8.82-1.07-3,.41-6.39,2.09-10.25,1.43-3.36,3-6.85,3-10.74.17-6.48-3.65-12.68-11.6-19-4.76-3.69-10.54-7.51-12.88-13.33-1.56-3.9-1.52-8.28-3.2-12.18-3.69-8.45-12.83-12.22-20.13-12.92a31.16,31.16,0,0,0-20.43,4.84c-4.55,3.08-9.1,9.8-11.23,16.2-9.31-2.17-19.69-2.3-30.84-.37-21.37,3.65-32,13.82-36.54,18.13a8.83,8.83,0,0,0-1.27,1.31c-8.45,2.91-19,11.11-23,21.08a18.87,18.87,0,0,0,.49,16.16s-3.11,7.42-2.5,31.33a128.83,128.83,0,0,0,1.89,18,113,113,0,0,0,4.35,17.63c6.15,18.29,16.11,30.64,28.78,36l-.9,4.88a43.07,43.07,0,0,0-14.43,3.57h-41.34a42.85,42.85,0,0,0-42.61,36.58l-7.75,50.84L930.52,881.7c-5.5-.08-11.61-.29-12.51-.41a79.44,79.44,0,0,0-47.9,7.3c-4.59,2.34-13.21,6.64-12.63,14.43.12,1.77,1.47,3.2,3.61,4.31a67,67,0,0,0-7.55,125.73v141.07l-6.39,23.63a70.16,70.16,0,0,1-15.38,7s0-.08-.09-.13a5.71,5.71,0,0,0-6.15-2.83,169.17,169.17,0,0,1-30.51,3.16,81.35,81.35,0,0,0-11.19.78c-4.55.7-10.79,1.64-14.48,6.23a19.83,19.83,0,0,0-3.28,7.59l-2.21,8.25a5.94,5.94,0,0,0,4.22,7.33c11.32,3.08,53.64,11.49,84,17.27v56H724.73c12.39-8.49,20.67-23.75,20.67-41.13V1125.09c0-26.58-19.36-48.19-43.1-48.19l-104.86,0v-9.31a3.09,3.09,0,0,0-3.07-3.07H546.3v-54.62H749.87a3.08,3.08,0,0,0,3.08-3.08V715.12a3.1,3.1,0,0,0-3.08-3.07H304.56a3.09,3.09,0,0,0-3.08,3.07v291.74a3.07,3.07,0,0,0,3.08,3.08H498.94v54.62H450.83a3.09,3.09,0,0,0-3.07,3.07v9.31H340.81c-22.6,0-41,21.61-41,48.19v142.26c0,17.26,7.79,32.48,19.48,41H302.91a3,3,0,0,0-3.07,3.07,3.07,3.07,0,0,0,3.07,3.08H994.45c-1.07,3.81-1.64,11.81-1.64,11.81a3,3,0,0,0,3.07,3.08l49.58-.13a3.11,3.11,0,0,0,2.71,1.64h133.2a3.08,3.08,0,0,0,0-6.15H1166.6a13,13,0,0,0,6.28-10.25h69.22l31.46,8c.12,0,.28.09.41.13a74,74,0,0,0-.25,16.52,3.1,3.1,0,0,0,3.12,2.71h165.84a3,3,0,0,0,3-2.46,107.22,107.22,0,0,0,1.72-24.93h589.51a3.1,3.1,0,0,0,3.07-3.08A3.06,3.06,0,0,0,2036.86,1308.36ZM543.23,940.22a3.07,3.07,0,0,0-3.08,3.07v121.27H505.09V946.37H522.6a3.08,3.08,0,1,0,0-6.15H429.84a1.87,1.87,0,0,1-1.81-1.89V828.88A1.83,1.83,0,0,1,429.8,827H615.36a1.82,1.82,0,0,1,1.81,1.89V938.33a1.82,1.82,0,0,1-1.81,1.89Zm-235.6,63.56V718.2H729.57v52.2a3.08,3.08,0,1,0,6.15,0V718.2H746.8v285.58H735.72V782.7a3.08,3.08,0,0,0-6.15,0v221.08H546.3V946.37h69.06a8,8,0,0,0,8-8V828.88a8,8,0,0,0-8-8H429.8a8,8,0,0,0-7.92,8V938.33a8,8,0,0,0,8,8h69.1v57.41Zm146.28,66.93H591.29v6.23H453.91Zm222.6,238.71H340.81a29.29,29.29,0,0,1-7.79-1.06c-15.47-4.27-27-21-27-41V1125.13c0-23.17,15.62-42,34.82-42h335.7c19.23,0,34.85,18.86,34.85,42v142.26c0,19.93-11.56,36.7-27.06,41A29.34,29.34,0,0,1,676.51,1309.42Zm25.79-.16h-5.53a45.38,45.38,0,0,0,14.27-16,54.12,54.12,0,0,0,6.48-25.92V1125.13c0-18.09-8.49-33.83-21-42.08h5.82c20.38,0,37,18.87,37,42v142.14c0,20.21-12.59,37.15-29.36,41.13A33.67,33.67,0,0,1,702.3,1309.26Zm1239.91-524a36.86,36.86,0,0,1,36.49,42.48L1966.61,907a64.67,64.67,0,0,0-12.59-1.23h-28.87l11.77-77.14a43,43,0,0,0-9.93-34.52,42.19,42.19,0,0,0-10.5-8.86Zm-19.89,12.83a36.84,36.84,0,0,1,8.49,29.65l-11.2,73.61A23.94,23.94,0,0,0,1917,896l-19.44-29.61a3.07,3.07,0,0,0,2-4.18s-20.14-52.12-25.43-60.2a72,72,0,0,0-15.34-16.86l35.56.17A36.88,36.88,0,0,1,1922.32,798.12ZM1740.07,930.83c.82,3.48,8.78,7.26,11.57,7.5a36.3,36.3,0,0,0,5.29,0c-5.7,9.48-14.44,27.15-13.45,36.17a7.94,7.94,0,0,0,2.87,5.74c.7.5,1.43,1,2.21,1.44v3.61a21.27,21.27,0,0,0-3-1.73,21,21,0,0,0-8-2c-.37,0-17.63,0-17.63,0l-17-61s17.92-94.86,20.06-104.33c.86-3.82-5.17-5.21-6-1.35-2.14,9.47-5.66,27.55-9.52,47.81l-38.75-24.28,29-53.14,2.26-4.1a15,15,0,0,1,2.5-2c7.5-5.34,21.12-8.7,39.45-9.68a17.25,17.25,0,0,0-.9,9.63,19.12,19.12,0,0,0,2,6.16c0,.08,0,.12.08.2,3.2,6.15,12.18,16.69,36.74,18.08,10.91.7,22.27-1.39,31.09-8.16,2-1.55-.45-4.92-2.5-3.23-7.14,5.49-16.69,7.95-28.38,7.3-20.3-1.15-28.83-8.74-32.32-14.19a16.78,16.78,0,0,1-2.62-6.16,13.24,13.24,0,0,1,1.31-9.67s0-.09.08-.13q1.79-.12,3.69-.12c-.32,2.54-1.8,6.36-1.18,9.92a10.48,10.48,0,0,0,3.69,6.16c5.16,4.83,16,9.55,29.77,9.55,5,0,18.49-1.31,26.82-11,1.39-1.68,2.75-3.32,4.14-5,.41-.49,3.73-7,3.94-7l3,.57c.45.12-2.71,8.08-3,8.78-1.15,2.33,2.42,4.22,3.65,1.88.37-.65,3.77-9,3.44-9.88.86.24,12.34,4,13,4.39,10.21,5.29,22.89,12.5,31.29,27.68,6.07,10.95,19.44,46.13,19.44,46.13l-56.76,16.36-13.2-26.61a3,3,0,0,0-4.1-1.39,3.07,3.07,0,0,0-1.4,4.1l18.91,38.26a3,3,0,0,0,2.75,1.68c.28,0,3.77-.9,3.77-.9l7.91,9.76c-12.71,1.06-42.44,4.39-59.62,13.24-5.79.41-18.21,6.2-21.41,8.2-3.81,2.51-13.33,7.55-18.33,7.39-2-.09-4.43.08-6,2C1739.09,925.54,1739.5,928.33,1740.07,930.83ZM1615.78,1236.1c12.42,0,30.71-6.28,44-14.93,3.36,8.2,8.08,19.85,11.2,27.52l-27.24,9.88c-2,.74-1.31,4.76,1.4,3.86l27.35-9.93c.86,2.14,2,5,2.13,5.09-.08.12-88.25,33.34-117.57,42.81a43.08,43.08,0,0,1-2.66-5l73.4-26.66c2.46-.9,1.07-4.67-1.43-3.85l-73.66,26.73c-2.21-5.49-4.26-12-3.36-14.55,2.22-6.36,9.27-10.34,15.5-13.82,4.8-2.71,9.93-5.66,15.14-9,1.51,1.55,5,7.5,5.41,8.12,1.43,2.17,5-.09,3.4-2.3-.37-.53-3.73-6.27-5.29-8.08,1.85-1.23,3.69-2.5,5.54-3.86,1.6,1.52,5.29,7.8,5.74,8.41,1.52,2.09,4.88-.08,3.36-2.29-.37-.54-4-6.69-5.74-8.53,2-1.48,3.9-3,5.82-4.68,1.6,1.52,5.25,7.71,5.66,8.32a2.08,2.08,0,0,0,2.83.58,2.14,2.14,0,0,0,.58-2.87c-.41-.53-4.06-6.81-5.91-8.69a12.13,12.13,0,0,1,3.61-2.55,7.64,7.64,0,0,1,4.88-.24A31.16,31.16,0,0,0,1615.78,1236.1Zm-4.68-6.52a74.84,74.84,0,0,0,4.51-7.34l33.46-2c-11.15,5.82-24,9.68-33.29,9.68A27.59,27.59,0,0,1,1611.1,1229.58Zm-31.45,5.53a2,2,0,0,0-2.59-1.22l-106.87,40.35c-2.17-4.72-3.32-9.72-1.64-14.27,2.3-6.32,9.52-10.3,15.3-13.5,4.3-2.37,8.9-5,13.53-7.75,1.93,1,4.15,4.76,5.37,6.89.54,1,1,1.76,1.44,2.38,1.43,2.17,4.92-.08,3.4-2.3-.37-.57-.82-1.31-1.27-2.13-1.39-2.37-3.12-5.29-5.25-7.17,1.81-1.15,3.61-2.38,5.42-3.61,2,.78,4.3,4.79,5.61,7,.54.9,1,1.72,1.44,2.34,1.43,2.13,5-.08,3.4-2.3-.37-.57-.82-1.31-1.27-2.13-1.48-2.5-3.28-5.62-5.62-7.51,2-1.43,3.9-2.91,5.83-4.46,1.92,1,4.1,4.71,5.33,6.84a23.42,23.42,0,0,0,1.47,2.38c1.44,2.26,4.76-.12,3.37-2.29-.37-.58-.78-1.32-1.27-2.14-1.48-2.54-3.32-5.66-5.66-7.54a8.85,8.85,0,0,0,.69-.58,12.41,12.41,0,0,1,3.65-2.54,14,14,0,0,1,3.94-.49,96.22,96.22,0,0,0,48.31-15.38l13.86,36.13c-3.32,2.58-12.67,8.16-12.67,8.16-32.64,12-101,35.14-101.33,35.19a.85.85,0,0,1-.17-.25c-1.15-1.68-2.29-3.49-3.32-5.33l106.42-40.19A2,2,0,0,0,1579.65,1235.11Zm-49.83-22a64.53,64.53,0,0,0,4.63-9l31.33-1.39A90.84,90.84,0,0,1,1529.82,1213.13Zm73,16.94a18.92,18.92,0,0,0-5.87,4c-.78.7-1.55,1.39-2.38,2.05l-13.12-34.24a3,3,0,0,0,2.09-2.83l.9-41.46H1596l3.44,62.5c.08,1.64,3.24,2.91,3.24,2.91l5.66-.33A90,90,0,0,1,1602.86,1230.07Zm-10.58-140H1586l.66-30.15,4-.33v.17Zm.33,6.15,3,55.28h-11l1.23-55.28Zm-2.14-58.52a44.24,44.24,0,0,0-.53,9.63l.33,6.11s-3.73.21-3.78.13c-.69-7.06-3.36-16.24-6.68-20.55-2.42-3.16-7.3.62-4.88,3.78,2.34,3,4.63,10.49,5.37,16.68.25,2.06-.28,28-.28,28l-2.55,114.66-59.3,2.63,4.31-178.31c0-6.35,2.46-12.1,7.38-17.14s11.2-8.32,17.59-10.83c1.89-.69,3.78-1.27,5.21-1.68L1677,970.85l7.26,19.48s-66.56,19.93-75.87,21.57c-.08,0-5,2.14-6.72,3.86A41.07,41.07,0,0,0,1590.47,1037.66Zm-150.38,14a131.17,131.17,0,0,0-7.79-28.87c-1.48-3.57-7.22-1.39-5.66,2.34,9.31,22.64,9.64,47.94,11.94,72q1.17,12.12,2.33,24.32c.37,3.94,6.52,3.4,6.11-.58l-2.33-24.76h69.79l-1.31,55.28h-66.23l-.41-4.68c-.33-3.94-6.52-3.4-6.15.58l8.49,93.83-18.95,1.92-19.07-226.9a2.88,2.88,0,0,1,2.46-3.12l108.18-9.39a29,29,0,0,0-5.16,16.65l-.78,32.27S1445.14,1053,1440.09,1051.68Zm75.29,7.1-.73,31.25h-70.58l-3.16-32.24c0-.25.13,0,.13,0Zm-66.18,186.5,1.31,14.32-19.07,1.64-1.19-14.07ZM1308,1273.62a16.2,16.2,0,0,0-4.63-8.65c.57-3.12.94-6.44,1.76-9.47a3.31,3.31,0,0,0,3.37-2.14l32.11-95.75h9.92s6.69,110.64,6.73,111.62c.28,4.43,2,5,6.76,4l-1.68,5.5c-6.15,3-35.35,16.85-53.76,17.59A60.64,60.64,0,0,0,1308,1273.62Zm-81.11-45.35,95.71-247c2.75-7.92,16.61-16.94,25.47-18.17l32.64-5.21h.08c17.72-1.84,55.37-8.86,55.94-8.9,0,0,24.52-.12,41.3.78h.2c3.16.17,6.44.33,9.88.62h.21L1367,977.91c-17.63,3.48-25.67,27.51-24.68,43.47l5.7,94.73-39.21,117.08-67.42-16.69a2,2,0,0,0-2.46,1.51,2,2,0,0,0,1.48,2.47l67.13,16.6-3.9,11.61Zm72.21,25.59L1296.6,1268c-3.61,6.24-12.26,8.45-19.27,8.45-6.69,0-11.57-1.92-12.92-3.85-10.79-15-19.68-22-24.77-24.9l5.21-8.32Zm-176.78-102.4-.25,6.15-1.4,35.55h-43.83l7-179.41c-.86-13.66,13.24-31.62,27.06-34.37l102.57-23.45h0c2.75,6.31,17.76,8.07,20,8.53l-74.06,15.46c-16.86,3.32-33,23.9-31.91,40.47Zm.45,50.07-4.6,74.8a25.3,25.3,0,0,1-1.72,4.63H1094.1a51.36,51.36,0,0,0-15,2.22,25.31,25.31,0,0,0,2.42-6.24l3.49-77.62h35.59a3.68,3.68,0,0,0,.78,1.39A2.86,2.86,0,0,0,1122.81,1201.53Zm-85.63,50.15a2.06,2.06,0,0,0-2.62-1.23l-97.89,35.15c.49-2.34,5.12-8.12,15.21-14.4a142.8,142.8,0,0,0,25-19.15,18.69,18.69,0,0,0,14.06,1.85c16.94-4.76,24-13,25.67-22.68l18.05-2.22s9.1,11.28,9.92,14c.53,1.72,3.41,11.56,4.43,16.36-8.82,3.9-108.71,40.4-109.08,40.52,0,0-2.83-9.39-3-10.05l99-35.55A2.06,2.06,0,0,0,1037.18,1251.68ZM1166.4,933.86a68.3,68.3,0,0,1,16.44,9.48c3.12,2.42,6.89-2.42,3.78-4.88A76.11,76.11,0,0,0,1168.33,928l-3.94-41,42.16-5.62s5.25,63.69,5.25,63.73c.16,2-4.39,5.94-6.24,6.35l-95.88,22c-18.86,3.32-28.54,23.2-28.37,22.38-2.67,1.48-42,14.11-55.9,18-2.26.66-6.27,1.64-8.94-.08-2.87-1.89-2.17-7-.7-10.13,4.43-9.23,23.34-19,39.5-25.59,2-.86,4-1.64,5.86-2.34,9.31-3.57,16.77-5.74,18.54-5.74a2.79,2.79,0,0,0,1.88-.16Zm-3.69-58.56,52.65-6.19c.25,1.89.5,3.49.66,4.76l-52.66,7Zm-107.53,96.05a205.85,205.85,0,0,0-20.91,9.63l-47.2,11.2,12.54-82.35,18.79-1.31a24.17,24.17,0,0,0,13-4.63L1064,880.1l1.07,1.07s0,0,.08,0C1061,917.62,1056.41,960.15,1055.18,971.35Zm-74.55,22.22-33.3,7.88s0-31.09,0-31.54a67.26,67.26,0,0,0-30.47-54.34,26.31,26.31,0,0,0,4.51.37,24.59,24.59,0,0,0,12-3.11l60.12-3Zm38.26-2.66c-4,3.28-7,6.64-8.65,10-2.75,5.7-2.87,13,1.6,16.94l-31.74,11.57a15.17,15.17,0,0,0-6.24,4.22,39.66,39.66,0,0,0-9.26,30.14l-10.5,1.27a128.25,128.25,0,0,0,.61-18.82c-.25-4-6.23-3.77-6.15.2.2,6.2.08,17.35-1.23,21.21,0,0-54.13,139.67-54.13,139.71l-39.41-10.66,43-159c3.6-13.41,13-20.92,28.09-24.73Zm-53.56,79L975.67,1151H947.33v-66.4l5.08-13.12Zm-18,87.23h29.12l9.43,73.73v0a69.44,69.44,0,0,1-14,17.39,19.21,19.21,0,0,1-1.68,1.47c-6.73,6-22.43,16.78-22.84,17Zm44,76.64,19.93-2.54a29.26,29.26,0,0,1-21.36,16.57,17.2,17.2,0,0,1-8.41-.46A73.52,73.52,0,0,0,991.33,1233.8Zm44-150.17,40.11-10-3,77.39h-35.64Zm-.08-6.36c-.12-7.38-.65-11.85-3.73-17.22a3.09,3.09,0,0,0-4.22-1.15,3,3,0,0,0-1.11,4.18c2.79,4.88,3.12,26.49,3.12,26.49l2.87,132.83-40.52,5.17-20.83-163.34a33.91,33.91,0,0,1,7.71-26.53,9.43,9.43,0,0,1,3.73-2.46s92.6-30,96.86-31.7a28.1,28.1,0,0,0-1.35,10.29l-2.09,53.44ZM1222.29,950a87.83,87.83,0,0,1,26.87-8.9c6.27-1,13-1.64,20-2.3.57,0,31-3.93,31-3.93s8.82,17.3,12.88,21.08c-.08,0-.13.12-.21.16-1.76,1.52-4.84,2.58-8.28,2.75-1.15,0-3.2.12-5.82.16-9.52.33-25.47.82-31.13,1.52a75,75,0,0,1-9.31.57c-10.74,0-21.53-2.13-29.73-4a50.49,50.49,0,0,1-8-2.91C1218.52,952.69,1220.94,950.72,1222.29,950Zm-94,207.63.25-6.15,5.16-131.15c-.82-13.66,13.29-31.66,27-34.37L1251.61,967c2.22.16,4.47.24,6.73.24a79.86,79.86,0,0,0,10.09-.61c5.37-.66,21.74-1.19,30.55-1.48l5.86-.16c4.11-.17,9.19-1.52,12.43-4.55a10.09,10.09,0,0,0,1,.74,3.18,3.18,0,0,0,2.71.36c3.32-1.1,9.92-3.28,10-3.28q4.13.62,8.61.86c-9.55,3.86-19.93,11.9-22.68,20l-9.14,23.62-120.28,12.55a7.7,7.7,0,0,0-6.85,6.68s-20.1,157.43-20.18,158c-.33,2.62,3.69,3.11,4.1.49l20.18-157.93a3.54,3.54,0,0,1,3.2-3.11L1306.07,1007l-19.6,50.61-73.07-.9c-.25-2.14-.37-3.82-.46-5.33-.32-4.44-.57-7.59-3.48-15.79-1.31-3.74-7.14-1.69-5.78,2.09,2.62,7.38,4.14,17.75,3.77,20.38-.45,3.2-30.39,137.46-30.39,137.46h-50.28Zm78.82-68,6.07-26.73,70.94.86-10,25.87Zm64.59,6.16-21.57,55.73h-56.88l12.51-55.73Zm-92.89,105.92h.74a3.15,3.15,0,0,0,3-2.42l9.26-41.62h55.86S1220,1229,1220,1229.21a3.06,3.06,0,0,0,2.09,4.1l16.61,4.43-5.17,8.24c-6.48,1.23-23.91,4.23-39.45,4.23-9.31,0-21.57-3.33-21.86-3.45C1172.18,1246.76,1178.66,1201.94,1178.78,1201.65ZM1345,953.26q8.31-2.89,16-5.66c2-.7,3.89-1.39,5.78-2.09,31.58-11.56,54.62-21.57,65.57-30.1l-2.79,28.5,0,.25c-15.29,2.87-32.35,5.78-49,7.54h-.13A246.56,246.56,0,0,1,1345,953.26Zm80.79,290.26-63.52,6.4L1348.48,1021c-.86-13.7,6.23-34.41,19.81-37.08l140.2-31.86c3,.33,6,.62,9.19,1,14.31,1.84,28.71,4.1,43.14,4.63,24.57.94,50.61-2.05,73.45-11.6l2,5.16a80.54,80.54,0,0,1,3.69,19.28l-88.58,14.14c-9.39,1.52-19.4,7.75-26,14.32-.08.08-112.49,10-112.49,10a7,7,0,0,0-6.15,7.55Zm.33,4.06,1.19,14-64,5.53-.78-13.12Zm-76-96.12h-7.46l6.35-18.91ZM1365.5,1284h0c1.56.28,5.86,1.31,12.63,5-9.84,5.29-31,15.5-35.51,16.53a22.92,22.92,0,0,1-16.2-2.34,13.83,13.83,0,0,1-3.69-2.87C1341,1295.93,1361.07,1286.21,1365.5,1284Zm3.4-5.54,1.8-5.78,57.13-5,1.35,15.5c-2.45,9.18-15.54,14.27-23.86,14.27-2.71,0-4.92-.53-6-1.43C1384.44,1283.92,1374.15,1279.86,1368.9,1278.46ZM1682,966.67l-15.38-41.3a25.22,25.22,0,0,1-1.84-15.42l11.52-59.42c0-.08,0-.16,0-.2l30.06,18.86c0,.21-9.43,51.35-9.43,52.13,0,.08,17.84,64.09,17.84,64.09a3.12,3.12,0,0,0,3,2.26h18.87a15.17,15.17,0,0,1,12,5.94v32.32a4.89,4.89,0,0,1-2.42-.41c-2.25-.91-2.25-3-3.77-4.47l-10.3-9.84a2.85,2.85,0,0,0-1.43-.78L1702.1,1004a16.75,16.75,0,0,1-9.84-9.76Zm73.16-188.89s1.93-11.6,2.5-15.34a33.78,33.78,0,0,0,3.28,1.56c16.2,6.73,35.19,2.79,49.87-5.86.33,3.36.45,7,1.48,10.25-1.81,4-8.37,16.86-19.07,19.11-9.43,2-19.73,1.44-28.67-2.29C1762.3,784.34,1754.51,781.11,1755.12,777.78Zm81,99.25-2.75-5.58,56.51-16.28,2.62,6.19Zm-11.94-117.21,27-5.45a36.88,36.88,0,0,1,31.66,8.61l8.73,7.75a4.73,4.73,0,0,1-3.16,8.2l-38,0c-.74-.49-1.44-.94-2.17-1.39-3.37-3.69-9.85-6.07-18-9.43-2.62-1.07-12.38-2.55-12.38-2.55-.37-2.13-.78-5.45-1-6.84C1817,758.76,1823.85,759.9,1824.22,759.82ZM1719.94,631.09c2-4.92,8.12-16.4,21.44-17.14,2.75-.2,6.81,1.72,8.13,2.46a3,3,0,0,0,2.83.12c.08,0,9.47-4.42,25.09-8,10.34-2.38,21.86-1.64,29.73-.54,12.84,1.73,28,10.46,32.2,23.71a3.1,3.1,0,0,0,2.46,2.13c19.31,3.49,27.31,25.67,26.53,43-.62,13.16-2.46,24.73-11.81,34.69a37.31,37.31,0,0,1-13,9.35c-1.52.62-5.46,2-6.81-2.91-.49-1.93-.74-6.07.58-7.79,2.79-3.57,5.7-7.38,7-11.81,1.06-3.73,2.25-7.55.37-11.36-1.6-3.2-4.72-5.05-8.08-6-4.88-1.35-10,1-13.7,4.14-1.47,1.27-2.62,4.39-5,3.49-2.71-1.07-3.32-5.54-2.75-7.88.94-3.93,2.13-7.79,3.32-11.48,1.23-4,2.5-8.12,3.53-12.46a58.21,58.21,0,0,0,6.52-4.56c3.08-2.54-.74-7.26-3.86-4.75-12.42,10.08-29.52,14-45,16.28-1.93.28-3.94.61-6,.94-12.18,2-26,4.22-36.66-1.39-8.86-4.43-17.76-16.37-17.92-26.54A14.31,14.31,0,0,1,1719.94,631.09Zm4.88,41c-1.23,6.93-2.67,13.91-2.67,21-4.75-2.5-8.73-7.14-6.56-25.43.49-4.3,2.54-13.69,2.67-13.94a40.26,40.26,0,0,0,8.44,9.88C1726.66,663.82,1725.31,669.4,1724.82,672.14Zm6.85,47.9a89.18,89.18,0,0,1-2.67-12.63c-1.6-11.19-.45-22.8,1.81-33.83a51.1,51.1,0,0,1,1.31-6c.7.37,1.35.78,2.09,1.15,14.35,7.59,31.25,3.32,46.38,1.11,10.05-1.48,22.8-4.23,34.08-9.31,0,0-4.51,14.68-5.5,18.78-1.6,6.77,1.93,12.67,6.11,14.76a7,7,0,0,0,8.94-1.55c2.14-2.42,4.84-5,8.25-5.58,2.46-.41,6,.41,6.84,3.12,1,3.24-.53,6.76-2.09,9.55-1.52,2.62-5,5.29-5.66,8.2s-3.44,11.77,2.26,18.25c0,0-7.83,12-14.68,17.72-8.57,7.13-19.32,15.13-30.76,16.77-10.5,1.52-22,.53-31.12-5.25C1744.63,747.35,1735.89,734.19,1731.67,720Zm5.45,24.73s5.58,7.09,9,9.8c.74.62,5.87,4.59,5.87,4.59-.21,1.28-.45,2.55-.66,3.82,0,.16-14.6.61-16,.74a128.1,128.1,0,0,0-16.28,2.42,65.08,65.08,0,0,0-14.36,4.63,47.4,47.4,0,0,0-6.31,3.49c-3.82,2.62-4.06,4.88-4.23,4.88h-28.25l27.39-42.08ZM1461.54,529.39a7.77,7.77,0,0,1,1.6-6.72,10.86,10.86,0,0,1,8.08-4.35,3.12,3.12,0,0,0,2.46-4.88c-5.37-7.63-4.31-20.22,2.38-27.52,6.27-6.81,16.93-9,26-5.33.53.21,5.2,1.81,5.2,1.81a32.12,32.12,0,0,0-3.07,11.6c-.25,3.94,5.86,4.31,6.15.37a26.36,26.36,0,0,1,5-13.7,75.7,75.7,0,0,1,5.28-5.45,22.68,22.68,0,0,1,14.07-3.94,22.17,22.17,0,0,1,16.85,8.82s2.18,3,3.82,3.94c1.93,1.1,6.36,1.06,6.36,1.06,10.9.08,19.47.94,22.14,10.58a23.59,23.59,0,0,1,.57,3.12c.13.78.21,1.6.41,2.46-1.47.29-3.28.66-5.49,1.19-3.44.82-2.87,6.07.7,6.07.2,0,10.82-2.09,14.55-1.72,4.76.57,10.71,2.05,13.74,5.37,11.69,12.87,12.14,17.26,10.87,27.06-2,2.59-4,3.86-10.25,7.92a3,3,0,0,0-.86,4.22,3.17,3.17,0,0,0,4.3.9c4.56-2.95,7.14-4.63,9.15-6.56,3.44,7.06,9.18,24.4-1.11,48.19-9,20.79-20,24.52-23.74,25.22-.17-.21-.29-.45-.5-.74-2.83-4.63-7.79-16.36-7.42-19.44.57-.53,8.78-7,12.39-11.11.78-.9,1.51-1.68,2.17-2.38,2.71-2.87,5-5.33,5.82-10.17,1.32-8.24-2.42-12.51-4.76-14.35-4.26-3.24-10-3.45-13.2-2a13.25,13.25,0,0,0-2.34,1.27,20.71,20.71,0,0,0-2.54,2c-1.89.08-9.72,2-17.35-10.42-1.6-2.58-2-12.18-.82-18.74,0,0,1.19-1.76,1.56-2.33a3.14,3.14,0,0,0-.82-4.31,3.08,3.08,0,0,0-4.26.82c-3,4.39-10.42,9.43-16.36,12.71-6.36,2.59-12.92,3-18.5,1.27a21.28,21.28,0,0,1-13.53-13,3.09,3.09,0,0,0-5.09-1.15c-9.1,9.15-25.34,15.59-37.56,15.14C1468.06,541.94,1463.1,535.5,1461.54,529.39Zm102.89,26.7c7.55,13.08,16.69,12.75,16.94,12.75a9.28,9.28,0,0,0-.7,3.28,3.1,3.1,0,0,0,3.08,3.08,3.07,3.07,0,0,0,3.07-3.08c0-1.47,3-5.2,5.37-6.72a7.22,7.22,0,0,1,8.45.45c2.26,1.72,3.08,4.55,2.46,8.45s-4.06,6.6-6.56,9.47c-6.64,7.59-10.13,9.14-11.52,9.43-1.11.17-1.68-.7-2.63-1.06a6.4,6.4,0,0,0-2.33-.41,6,6,0,0,0-5.79,4.14c-4.75,12.42-12.75,18.21-25.22,18.21q-11.13,0-27.15-6.44c-4.67-1.89-11.11-4.47-17.71-4.47a21.37,21.37,0,0,0-9.39,2.05c-6.44,3.15-13.94-7.1-17.51-13.33-.33-2-.58-3.94-.78-5.95a91.71,91.71,0,0,1,.24-20.67,169.41,169.41,0,0,1,3-17.18,64,64,0,0,0,32.52-13.78,27.79,27.79,0,0,0,15.62,12.8,33.11,33.11,0,0,0,20.39-.58c.94-.32,1.84-.65,2.78-1.06a.71.71,0,0,0,.21-.08,101.11,101.11,0,0,0,10.33-6.73C1561.15,544.19,1561.73,551.41,1564.43,556.09Zm-91.7,72.34c0-3.77,1-17.14,2.18-28.71,4,5.7,10.09,12.26,17.31,12.26a11.85,11.85,0,0,0,5.24-1.23,15.07,15.07,0,0,1,6.73-1.43c5.37,0,11,2.25,15.58,4.1,11.4,4.59,21,6.81,29.28,6.81,14.93,0,25.35-7.47,31-22.35.61-.25,1-.62,1.63-.25.83.45,1.07,1.64,1.19,2.46.13,4.84,3.94,13.94,7.14,19.73-2.46,34.57-22.55,44.74-55.4,49.78a60.78,60.78,0,0,1-9.52.7c-16.4,0-31.45-6-39.08-11.94C1476.84,651.15,1472.73,641.92,1472.73,628.43ZM1556,671.16c-4.51,5.9-10.58,12.42-15.37,13.49-13.74,3.12-24.4.62-31-7.13a26.64,26.64,0,0,1-2.25-3.16,78.42,78.42,0,0,0,17.67,2.09,67.49,67.49,0,0,0,10.46-.78A136.79,136.79,0,0,0,1556,671.16Zm-73.89-8.08a79.37,79.37,0,0,0,7.13,4.63,64.66,64.66,0,0,0,10.38,4.48,32,32,0,0,0,5.33,9.3c4.1,4.84,11.77,10.63,24.89,10.63,4.51,0,9.56-.37,13.82-1.93,15.75-5.74,23.21-23.91,23.21-24,.17,0,7.59.57,11.07.9-7.83,16.4-29.44,32.44-52.57,31.17-15.71-.91-28.54-10.91-32.68-25.51a2,2,0,0,0-3.94,1.11c4.59,16.32,18.91,27.51,36.38,28.46.94.08,1.88.08,2.78.08,21.45,0,41.34-13.53,51-28.63a62.73,62.73,0,0,0,3.24-6.23c17.92,2.09,34.49,6.11,44.94,15.3l64.47,45.56-32.93,50.65-39.29-1.24c-1-5.49-1.35-22.47-1.19-37.07a3,3,0,0,0-3-3.11,3,3,0,0,0-3.12,3c-.12,10.42-.2,34.41,1.93,40.76,0,0,.12,29.2,0,34.37-.12,12.42-.24,19.93,1.81,34.61a3.06,3.06,0,0,0,3.48,2.62,3.12,3.12,0,0,0,2.63-3.48c-2-14.23-1.93-21.12-1.77-33.71.08-5.17,0-31.86,0-31.86l70.54,1.27L1662,838a3.1,3.1,0,0,0,1.07,4.11l7.92,4.67-12.31,62a31.28,31.28,0,0,0,2.17,19L1674.79,965,1646,969.58c-.58-7.09-7.09-28.54-7.09-28.54-7.76-39.29-12.47-63.6-15.18-79.8a3.08,3.08,0,1,0-6.07,1c2.67,16,7.3,39.82,14.85,77.92-7,2.91-30.64,11.48-64.59,11.48-5.74,0-11.49-.2-17.19-.7-11.76-1-23.45-3-35.22-4.34-6.89-.74-13.82-1.36-20.71-2-12.22-1.19-24.89-1.73-37.24-1.73l-20.13-.24c.78-6.93,2.5-23.46,4.84-54,.08-.94.57-3.48,1.19-6.68,1.72-8.94,4.63-24,5.74-40.31,5.24,20,12.67,44,20.09,53.8,2.38,3.16,7.34-.54,4.92-3.69-8.73-11.57-18.94-48.27-25.63-78.78a1.23,1.23,0,0,1-.08-.37s0-.08,0-.12c-2.75-21.16.16-67.71,7.5-90.26a3.08,3.08,0,1,0-5.86-1.89,129.84,129.84,0,0,0-4.06,17c-5.62-10.7-15.91-19.44-31.09-26.45l52,2.5a3,3,0,0,0,2.51-1.35c6.31-9.11,1.35-20.88-2.67-30.27,0,0-4.72-9.14-5.09-10.54C1470.28,665.71,1475.32,663.74,1482.13,663.08Zm-169-75.21c3.69-11.93,14.19-24.85,26.94-32.89a2.05,2.05,0,1,0-2.17-3.48c-14,8.85-25.14,22.76-28.91,35.92l-9.6-1c1.81-14.84,8.29-27.55,18-35.26,10.82-8.53,26.08-10.3,26.2-10.3a3.22,3.22,0,0,0,2.22-1.31c3.19-4.59,15.09-9.23,31.65-9.23,20.3,0,39.82,7.14,53.48,19.61,34.28,31.29,27.76,46.5,22.47,58.72-3.44,8-7,16.36,2.38,26,8.24,8.41,5.58,15,2.5,22.6-1.43,3.56-2.91,7.13-3.07,10.9a14.2,14.2,0,0,0,1.19,6.69c.57,1.39,4.67,9.35,4.67,9.35,3.32,7.87,7,16.69,4.1,23l-17.3-.81c1-6.73-1.77-13.13-4.39-19.32-2-4.67-4-9.47-4.39-14.27-.29-4.14.7-8.28,1.72-12.63,1.07-4.64,2.22-9.43,1.73-14.4-.37-4.06-6.44-27-6.61-33.38-.08-3.44-.16-7.09-.41-10.7a2.06,2.06,0,0,0-4.1.29c.25,3.57.33,7.13.41,10.54.17,6.6,6.32,30.1,6.65,33.62.41,4.31-.62,8.57-1.69,13.09s-2.13,9.1-1.76,13.86c.37,5.49,2.58,10.62,4.68,15.58,2.58,6.07,5,11.77,4.06,17.51L1400.19,704c-2-3.69-1-9.48-.12-14.64a22,22,0,0,1,4-10.62c1.72-2.59,3-7.22-.25-14.64-1.35-3-3.32-6.07-3.44-9.48s1.92-6.48,3.6-9.31c2.42-4,5.17-8.49,4.23-13.82-.45-2.58-1.81-4.88-2.54-7.42a18.29,18.29,0,0,1-.25-8.2,24.26,24.26,0,0,1,5.9-12.47,3.14,3.14,0,0,0-1.88-5.25Zm6.6,79a78.69,78.69,0,0,1-3.48-10.46,76.36,76.36,0,0,1-1.6-7.47,89.36,89.36,0,0,1-1.11-20.46,76.11,76.11,0,0,1,10.21-33.3l79.6,8.53c-4,6.77-6,16.4-3,24.24.86,2.21,2,4.26,1.76,6.68-.33,2.71-2.05,5.21-3.44,7.47-2.1,3.4-4.19,7-4.48,11.07s1.32,7.83,3,11.44c1.07,2.21,2.3,4.63,2.34,7.14,0,2.82-1.6,4.38-3,6.56-1.88,2.91-2.09,6.68-2.58,10a.27.27,0,0,1,0,.17c-10.13,7.75-21.9,12.59-33.51,11.89C1341.06,699.29,1326.74,684,1319.77,666.9Zm76.81,42.48c-11.28,11.24-48,49-48.18,49-.62,0-1.4-.62-1.4-1.11,0-12.43,3.2-45.77,3.53-49.17l.82-2.83a45.87,45.87,0,0,0,8.65,1.35c.9,0,1.77.08,2.63.08,10.66,0,21.08-3.73,30.34-9.8C1392.44,698.51,1392.81,704.66,1396.58,709.38ZM1290,753.22c1.68-7.14,3.07-13.86,3.85-18.13,2.22-12.05,10.71-15.25,24.36-19.52.49-.16,23.17-5.9,26.13-6.64-.74,7.42-3.45,36.5-3.45,48.31,0,5.9,8.16,9.92,12.34,5.16,5.13-5.74,46.18-47.12,49.17-50.07,1.48.54,2.88,1.19,4.31,1.68,25.26,8.74,37.28,34.82,37.52,35.11-1.27,9.8-2.17,20.3-2.58,30.22-.57,13.41-.37,25.84.78,34.24a.27.27,0,0,0,0,.17c3.24,24.52-2.34,53.27-5,67-.74,3.69-1.19,6.11-1.32,7.42-.45,6.15-.53,9-1.1,14-.82,7.55-38.26,25.68-70.37,37.53-1.93.7-35.11,12.34-44.17,15.38a34.46,34.46,0,0,1-5.17-5.83,44.55,44.55,0,0,1-5.62-8.77c-1.84-3.24-3.32-6.15-4.1-8,.08-.08,6-4,8.74-5.74a53.32,53.32,0,0,0,3,7.13,103.67,103.67,0,0,0,6.65,12.72c1.35,2.13,4.92.12,3.48-2.22a106.12,106.12,0,0,1-6.44-12.22,44.52,44.52,0,0,1-3-7.66c5.9-3.62,11.6-6.85,17.51-10.18,6.07-3.4,12.3-6.93,19.27-11.15,2.46-1.48,10.26-5.45,19.32-10,14.15-7.18,31.74-16.12,37.64-20.1a3.06,3.06,0,0,0,1.36-2.75c-.91-15,.78-65.45.94-72.79,0-2.71.08-5.41.08-8.08.08-6.31,0-12.42-.29-18.16-.2-4-6.39-3.61-6.15.32.29,5.87.37,12.18.29,18.74,0,9.48-1.89,63.65-1.11,78.54-6.72,4.14-22.59,12.22-35.55,18.78-9.52,4.84-17.06,8.65-19.69,10.25-6.89,4.18-13.12,7.67-19.11,11.07-10.37,5.87-20.17,11.32-31.61,19.36a208.21,208.21,0,0,1-25,3.53c9.8-41.14,22.35-106.13,22.64-113.48a3.6,3.6,0,0,0-.33-1.47c-.08-.17-7.38-15.13-5.21-29.4,2.5-16.7,6.93-24,11.2-31a75.7,75.7,0,0,0,5.86-11.15c1.48-3.69-4.18-6-5.7-2.3a67.19,67.19,0,0,1-5.45,10.25c-4.35,7.18-9.31,15.34-12,33.26-2.13,14.36,3.86,28.79,5.41,32.28-.86,10-13.57,74.8-22.84,113.59-7.09.7-14.43,1.36-21.16,2.42a87.8,87.8,0,0,0-15.34,3.82c15.18-25.43,36.62-75.83,39.62-82.93,1.52-3.65-4.1-6-5.66-2.37-12.67,29.89-32.89,74-43.63,89.15-1.77.82-3.53,1.68-5.21,2.67l-5.29-64.55,7.22-1.23a3.09,3.09,0,0,0,2.62-3.49c-.33-2.38-5.66-41.71-11.07-62.66-1.93-7.5-8.49-22.51-19.77-28.58h86.24c-3.44,27.55-7,54.83-7,54.91-.49,3.85,5.58,4.71,6.11.78C1277,840.53,1284.83,775,1290,753.22ZM1169.6,770.28l8.73-7.75a36.46,36.46,0,0,1,24.4-9.31,35.45,35.45,0,0,1,7.26.7l27.07,5.45a2.55,2.55,0,0,0,1.1,0l45.93-8.08c0,.21-5.2,26.29-5.33,27.4h-98.29a4.69,4.69,0,0,0-.54-.21c-3.2-1.31-10.62-3.36-10.82-3.4l-.91,0A4.55,4.55,0,0,1,1169.6,770.28ZM1181.78,600a25.4,25.4,0,0,1,16.4-3.86c7,.7,13,4.35,15.09,9.27,1.64,3.77,1.6,8.08,3.12,11.93,2.46,6.28,7.71,10.38,12.8,14.36,4.87,3.77,11.39,8.81,11.27,15.66,0,2.67-1.27,5.46-2.54,8.41-1.93,4.43-4.06,9.39-2.26,14.68,1.44,4.27,5.13,6.85,7.63,10.38,3.82,5.41,3,12.83,1.48,20.26l-33.55.08a58.72,58.72,0,0,0,4.31-19.44c1-24.57-8.41-46.42-25.84-60a54.37,54.37,0,0,0-16.65-8.94C1174.81,607.72,1178.46,602.22,1181.78,600Zm-100.6,53.47a30.25,30.25,0,0,1,9.72-12.26,35.5,35.5,0,0,1,6.77-4.1c.41-.2.78-.37,1.15-.53,5.45,9.27,17.67,11.68,26.78,13.53l1.18.21a1.33,1.33,0,0,0,.41,0,2,2,0,0,0,.37-4.06l-1.14-.21c-8.25-1.64-19.28-3.81-24-11.4a13.91,13.91,0,0,0,1.14-1,59.16,59.16,0,0,1,17-11.9,73.77,73.77,0,0,1,38.26-5.9,56.89,56.89,0,0,1,12.51,2.75,48.88,48.88,0,0,1,14.6,7.87c15.83,12.39,24.4,32.4,23.46,55a52.79,52.79,0,0,1-4.88,19.69,48.5,48.5,0,0,1-3.16,6.07,77.68,77.68,0,0,1-18.25,20.54,44.59,44.59,0,0,1,5.62-11.28,61.52,61.52,0,0,0,6.64-12.58c1.72-4.27,1.93-9.36-.78-13.29a13.8,13.8,0,0,0-11.32-5.46,16.77,16.77,0,0,0-13.61,7.1c-5.5-7.75-18.86-22.19-40.52-21a103.47,103.47,0,0,0-11.48,1.52,102.18,102.18,0,0,1-15,1.64,22.25,22.25,0,0,1-10.29-2.05c-3.65-2.09-8.86-4-11-7.91A12.94,12.94,0,0,1,1081.18,653.44Zm16.32,101c-5.53-6.4-9.31-14.15-12-22.14a106.47,106.47,0,0,1-4.1-16.74,137.84,137.84,0,0,1-1.81-17.18,131.44,131.44,0,0,1,1-25.92c6.44,5,13.9,8.08,22.06,8.08,9.06,0,17.84-2.62,26.82-3.16,24.94-1.51,37.52,22.11,37.65,22.35a3.11,3.11,0,0,0,5.62-.37c2.21-6,6.84-8.11,10.49-8.11,5.91,0,8.49,5,6.4,10.29a58.6,58.6,0,0,1-6.07,11.52c-2.42,3.69-4.67,7.18-7.3,15.71-.53,1.76-1.68,6.11-1.68,6.19,0,.78-9,10.91-11.11,12.92a85.45,85.45,0,0,1-13.62,10.7c-8.77,5.46-19.15,9.43-29.65,8.37C1111.2,766.05,1103.33,761.3,1097.5,754.49Zm61.07,26.9c-.62,1.15-1.32,2.3-2,3.45-5.83,9.39-14,18-17.92,19.68-10.54,4.47-21.33,3.57-25.68-2-3.19-4.06-2-9.18-1.43-13.9.12-1.27,2.87-16.49,2.87-16.49s11,4.64,27.43-2.54c3.82-1.68,12.43-6.19,12.43-6.52C1155.08,767.08,1158.57,781.39,1158.57,781.39Zm-64.18,3.45c1.39-.62,2.74-1.15,4.06-1.6-.17.53-.37,1.06-.5,1.6-2.54,8.36-2.58,16.77.13,23.37a22.75,22.75,0,0,0,13.33,12.92,42.47,42.47,0,0,0,15.74,2.91,44,44,0,0,0,28.09-10,55,55,0,0,0,11.65-13.87c1.35-2.21-2.13-4.38-3.53-2.13a49.17,49.17,0,0,1-10.74,12.84,40.51,40.51,0,0,1-39.7,6.36,18.63,18.63,0,0,1-11-10.63c-4.18-10.33,1.36-24.56,1.64-24.77a20.17,20.17,0,0,1,3-.53c-1.55,8.24-4,17.72,1.64,25,7.67,9.93,22.89,8.45,32.93,3.86,9-4.1,19.65-17.35,23.83-29.16a40.4,40.4,0,0,1,14.23,3.82c3.53,1.55,9.47,5.49,9.84,5.49,8.62,4.76,14.68,17.39,16.53,24.65,3.61,13.82,7.22,36.33,9.23,50.07-.5,0-52.29,6.15-52.29,6.15l-1.8-27.51a3.06,3.06,0,1,0-6.11.41l7.75,84.8-38.47,16.28c-4.43-10.66-11.48-19.76-18.33-28.62-3.65-4.72-7.42-9.6-10.75-14.6a2,2,0,0,0-2.82-.62,2.1,2.1,0,0,0-.58,2.87c3.4,5.13,7.22,10.09,10.91,14.85,6.68,8.65,13.61,17.55,17.84,27.72l-40.23,17c-2.42.08-9.43,2-18.17,5.08,1.6-15,14.44-127.41,15.79-136.47a3.07,3.07,0,1,0-6.07-.91c-.94,6.2-2.21,16.08-3.65,27.85l-21-20.67a2,2,0,1,0-2.87,2.91l23.3,22.93c-.33,2.91-.7,5.9-1,9l-32.52-31.66,41.09-44.25A74.88,74.88,0,0,1,1094.39,784.84Zm-79.07,31.37a36.65,36.65,0,0,1,36.5-31.37h29.57a84.68,84.68,0,0,0-11,8.36L1027,839.83a3.13,3.13,0,0,0,.12,4.31l1.52,1.47-15.87,18-4.84,1.07ZM872.9,894.09A73.44,73.44,0,0,1,917,887.36c1.44.24,10.09.45,13.78.53.21,0,81.24-17.8,81.24-17.8a34,34,0,0,0,2.13,3.9,28.37,28.37,0,0,1,4.1,11.77c.45,3.85,6.48,3.28,6.11-.7a34.1,34.1,0,0,0-5-14.31,17.42,17.42,0,0,1-1.72-3.36L1033,849.92l26.49,25.83-31.78,23.17a18.25,18.25,0,0,1-9.68,3.45l-85.79,4.39a2.9,2.9,0,0,0-1.44.41,18.3,18.3,0,0,1-9.51,2.62c-4.31,0-8.45-1.39-11.73-2.5-2.62-.9-3.89-1.93-7.75-1.44-3,.37-5.66,0-8.61,0a165.11,165.11,0,0,1-17.47-1.1c-6.11-.74-10.62-1.77-12.14-2.71C864,899,868.47,896.3,872.9,894.09Zm-53.56,77.5a60.9,60.9,0,0,1,55.89-60.65,60.78,60.78,0,0,1,65.91,59.26c0,.45,0,32.72,0,32.72L923.87,1007c-15.46,2.71-28.75,13.33-33,29.16l-31.41,116.1.2-121.23a3.06,3.06,0,0,0-2-2.83A60.66,60.66,0,0,1,819.34,971.59Zm29.28,230.06c.16.08,19.36,5.29,19.36,5.29a7.87,7.87,0,0,1-.66.74,29.8,29.8,0,0,1-27.6,3.36,18.55,18.55,0,0,1-5.12-3A145.57,145.57,0,0,0,848.62,1201.65Zm-78.82,27.72,1.77-6.48s76.11,14.64,76.31,14.64c2.46.17,2.71-3.64.37-4.1l-75.58-14.51a9.38,9.38,0,0,1,1.52-3.16c2.13-2.71,6.81-3.4,10.66-4a73.07,73.07,0,0,1,10.21-.7,174.49,174.49,0,0,0,31.38-3.2c2.09,3.74,6,6.85,11,8.86a35.88,35.88,0,0,0,33.5-4.1c.78-.57,3.2-3.48,3.65-3.9l.12-.12c2.3.49,15.75,4.35,16.94,4.76-.33,2.38-.57,5-.82,7.75a116.63,116.63,0,0,1-2,14.48c-.21.82-.78,2.91-1.48,5.37l-21.28-4.1a2,2,0,0,0-2.42,1.6,2.06,2.06,0,0,0,1.64,2.42l20.91,4c-.77,2.58-1.55,5.16-2.17,6.93C873,1250.37,785.84,1233.56,769.8,1229.37Zm171.38,78.54h-83v-54.46c6.76,1.27,13.53,2.54,20.34,3.73,3.85.69,9.31,2.21,11.07-2.71,1.68-4.68,4.67-15.5,5.12-17.35,1.11-4.22,1.65-9.92,2.18-15.41.37-3.65.7-7.1,1.15-9.85l43.1-111.34v170.64c-.58.45-1.15.9-1.68,1.35-3.53,3-8.37,7.06-9.07,12.88a20.85,20.85,0,0,0,1.15,8.2l2.46,8.21a6.06,6.06,0,0,0,5.74,4.3,4.06,4.06,0,0,0,1.4-.2Zm6.15,0V1304c25.43-8.57,97.4-35.8,104.74-39.25a5.51,5.51,0,0,0,3.07-6.07c-1-4.83-4.1-15.5-4.67-17.43-1.36-4.26-12-16-12.14-16v-.2l-1.48-67.91h35.27s-1.52,38.87-1.52,38.95a3.13,3.13,0,0,0,3.08,3.21h5.21l-3.41,76.52a23,23,0,0,1-1.39,3.65h-32.28c-20.3,0-37.72,11.72-45.15,28.42Zm98,15.21-46.26.12c1.44-21,20.05-37.6,42.77-37.6l30.64-.08-2.59,1.51C1056.29,1294.41,1046.78,1307.7,1045.3,1323.12Zm6.07,1.64c1.43-21,20.05-37.65,42.73-37.65h23.42l37.23,37.65Zm115.36-10.91a7.51,7.51,0,0,1-7.3,6.93l-37.2-37.6a27.18,27.18,0,0,0,2-5.7l4.68-75.83h43.47l-6.2,43.35a21.38,21.38,0,0,0-4.22-.41c-22.88,0-28.38,34.94-28.62,36.41a3.13,3.13,0,0,0,2.29,3.45l27,7.3,2.38,7.5A38.07,38.07,0,0,1,1166.73,1313.85Zm6.15-5.94a42,42,0,0,0-2-10.5l-1.19-3.73,52.74,14.23ZM1147,1274.53l130.33,35.22a41.31,41.31,0,0,0-2.26,6.85s-131-36.33-135.08-37.4c1.64-7.59,7.5-28.46,22-28.46a21.1,21.1,0,0,1,8.53,2c5.45,2.38,13.33,3.61,23.5,3.61,16.28,0,34-3.08,40.64-4.31,1.11.49,5.13,2.46,11.15,8.16-12.71,3.08-35.67,7.26-38.3,6.81-5.58-1.11-11.32-2.62-15.3-6.56a2.06,2.06,0,1,0-2.87,3c4.76,4.67,11.2,6.4,17.39,7.63a7.89,7.89,0,0,0,1,0c6.4,0,31.41-5,41.41-7.46a123.63,123.63,0,0,1,10.22,12.55c3.4,4.75,11.48,6.43,17.92,6.43,8.28,0,18.61-2.74,23.82-10.33a17.7,17.7,0,0,0,.91,2.79,54.17,54.17,0,0,1,.33,21c-8.66-1.19-15.59,1.1-20.59,6.72a21.2,21.2,0,0,0-2.42,3.28l-131.23-35.51a2.08,2.08,0,0,0-2.54,1.43A2.1,2.1,0,0,0,1147,1274.53Zm294.16,49.9h-19.6a22.9,22.9,0,0,1,2.05-7.22,4.88,4.88,0,0,0,.57-1.84,2.07,2.07,0,0,0-3.89-.82,29.7,29.7,0,0,0-2.87,9.88h-131a2,2,0,0,0-2,2,2.06,2.06,0,0,0,2,2h154.4c-.24,3-.61,5.58-.86,7.26-3.85,0-156.2-.12-160.43-.08-.28-6.15-.24-21,6.77-28.87,3.73-4.18,8.94-5.7,15.83-4.63a36.41,36.41,0,0,0,4.84.32,60.7,60.7,0,0,0,11.36-1.23,16.72,16.72,0,0,0,6,5.46,27.2,27.2,0,0,0,13.24,3.44,25.28,25.28,0,0,0,5.87-.66c5.37-1.22,29.81-13.07,38.75-18.16a119.09,119.09,0,0,1,13.08,9.43c2.26,1.85,5.7,2.83,9.93,2.83,9.31,0,23.74-5,28.7-15.83a14,14,0,0,1,1,1.6,45.83,45.83,0,0,1,3.24,7.59,42.05,42.05,0,0,0-13.54,10.78c-1.23,1.52.46,4,2.3,3.16a4.75,4.75,0,0,0,1.68-1.48,37.47,37.47,0,0,1,10.67-8.44A86.45,86.45,0,0,1,1441.2,1324.43Zm307.36-16.07H1446.82a59.86,59.86,0,0,0-6.44-21.9,17.61,17.61,0,0,0-5.25-6.24l-1.15-13,20.14-1.72a3.11,3.11,0,0,0,2.79-3.36l-9.4-104.49H1513l-1.07,44.25A3.06,3.06,0,0,0,1515,1205l12.55-.53a63,63,0,0,1-6.2,9.64,18.34,18.34,0,0,0-5.82,3.93c-10.79,9.48-23.58,17-34.65,23.09-6.73,3.69-15.05,8.28-18.13,16.77-3.73,10.26,2,20.8,7.55,28.83,2,2.91,5,3.41,8.24,2.38,24.81-7.67,49.5-16.36,73.73-25.18-3.77,2.87-7.09,6.44-8.73,11.12-2.79,8,6.89,26.78,8.32,28.7,2.18,3,5.13,3.16,8.41,2.22,34.49-11.12,114.29-41.5,114.78-41.71,4.8-1.8,6.69-5.33,4.76-10.17-.25-.57-10.66-26.33-14.15-34.77a3.1,3.1,0,0,0,2.46-3.16l-2.79-58.52h72.8c4,0,4-6.15,0-6.15h-73.08l-2.63-55.28h86.12Zm-76.11-238.76,57.58-10,18.53-2.26V1090h-86.4s-.91-19.16-.91-19.24a15.7,15.7,0,0,0-.57-3.4,52.65,52.65,0,0,0-5.74-14.93c-.9-1.72-3.16-5.66-3.16-5.66-2.13-3.65-7.14-.29-5.09,3.45,4,7.34,7.39,13.08,8.41,21l6.73,142.14-56.43,3.32s-9.06-165.51-9.31-169.78a36.72,36.72,0,0,1,.45-8.24,34.56,34.56,0,0,1,9.47-18.57,11.5,11.5,0,0,1,4-2.26l76.49-21.49a22.68,22.68,0,0,0,13.86,13.49l28.09,6.4,9.14,8.78a11.63,11.63,0,0,0,6.07,6.15,18.35,18.35,0,0,0,5.09,1l-.33,19-16.28,1.84s-60.65,10.5-60.78,10.54C1667.45,1064.27,1668.55,1070.26,1672.45,1069.6Zm76.93-95.71c-.41-2.38,1-6.56,1.4-7.88a82,82,0,0,1,4.47-11.52c2.83-6.07,5.9-12.67,10.17-17.88a3.11,3.11,0,0,0-2.75-5,79.17,79.17,0,0,1-10.54.57c-1.19-.08-5-2.17-6.19-3.24-.25-1.27-.08-1.35,1.15-1.35,8.52,0,21.32-8.28,21.44-8.37a47.58,47.58,0,0,1,16-6.85c1.35-.28,3.07-.12,4.3-.77,15.26-8.17,34.16-10.38,51.14-12.23,8-.86,15.67-1.64,23.58-3.11l16-3c3.9-.74,2.79-6.81-1.1-6l-24.85,4.59L1844.73,881l46.62-13,20.51,31.29a16.27,16.27,0,0,1-11.32,25.06l-80.5,4.18a11.11,11.11,0,0,0,.37-4c-.57-3.94-6.64-3-6.07.94.74,5-14.11,28.13-28.42,47-2.83,4.55-8.08,6.4-12,7.18-8.29,1.6-18.13-.2-23.87-4.39A2,2,0,0,1,1749.38,973.89Zm86.82,58.44v276h-81.49V984.3a39.78,39.78,0,0,0,13,2.1,37.8,37.8,0,0,0,7.46-.7,32.42,32.42,0,0,0,5.62-1.64,30.1,30.1,0,1,0,43.15-34.61,3.08,3.08,0,1,0-2.87,5.45,24,24,0,0,1-11.28,45.11,24.15,24.15,0,0,1-23.42-18.78c0-.08,0-.12,0-.21a18,18,0,0,0,4.68-5c5.57-7.3,20.7-27.68,26.86-41.3.28.13,43.47-2,43.47-2a60.9,60.9,0,0,1-23.22,96.87A3.37,3.37,0,0,0,1836.2,1032.33Zm101.21,3.07h37.19v273H1842.35v-273h82.39a3.08,3.08,0,0,0,0-6.15H1851.9a67,67,0,0,0,17-97l32.19-1.68a22.25,22.25,0,0,0,17.56-12.83,20.79,20.79,0,0,0,1.72-5.75H1954a60.45,60.45,0,0,1,21.2,3.82,60.89,60.89,0,0,1,1.76,113.47h-39.57a3.08,3.08,0,1,0,0,6.15Z" transform="translate(798.33 79.92)"/><path d="M873.43,1004.2a3.08,3.08,0,0,1,0-6.15,24,24,0,1,0-24-24,3.08,3.08,0,1,1-6.15,0,30.12,30.12,0,1,1,30.11,30.12Z" transform="translate(798.33 79.92)"/><path d="M698.2,1125.46c-3.32-19.44-18.54-34.21-36.79-34.21H356.23c-20.71,0-37.53,19-37.53,42.37v123.76c0,23.38,16.82,42.36,37.53,42.36H661.58a30.69,30.69,0,0,0,6.15-.61c12.75-2.42,23.34-12.18,28.26-25.26a47.41,47.41,0,0,0,3-16.49V1133.62A44.55,44.55,0,0,0,698.2,1125.46Zm-342,168.13c-17.31,0-31.38-16.24-31.38-36.21V1133.62c0-20,14.07-36.21,31.38-36.21h8a51.87,51.87,0,0,0-8,28v141.9a51.82,51.82,0,0,0,7.05,26.32Zm142.42,0,76.11-140.49L530.1,1289.7a3.11,3.11,0,0,0,2,3.89Zm-6.11-1.68-13.86-7.5,84.68-156.33,13.86,7.51Zm61.39,2.34-2-.66-15-4.92,55.24-169,17.06,5.57-55.08,168.34Zm56.06-.66H560.61L610,1142.64Zm17.22,0H616.14V1121.15h11.07Zm34.37,0H633.36V1121.15h28.22ZM664.65,1115H610v4.06l-18.82-6.19a3.09,3.09,0,0,0-3.9,2l-5.33,16.32-18.37-10a2.92,2.92,0,0,0-2.34-.25,3.06,3.06,0,0,0-1.8,1.48L471.79,1284.2a3.06,3.06,0,0,0,1.23,4.15l9.68,5.24H370.54a45.16,45.16,0,0,1-8.2-26.32v-141.9a45.08,45.08,0,0,1,9.39-28H661.41c14.89,0,27.36,12,30.56,28H667.73v-7.38A3,3,0,0,0,664.65,1115Zm28.14,142.38c0,17.47-10.79,32.11-25.06,35.48V1131.61h25c0,.65,0,1.31,0,2Z" transform="translate(798.33 79.92)"/></svg>